<svg width="24" height="24" viewBox="0 0 24 24" fill="none" xmlns="http://www.w3.org/2000/svg">
<path d="M21 12C21 7.02981 16.9702 3 12 3C7.02981 3 3 7.02981 3 12C3 16.4918 6.29068 20.2153 10.5939 20.8912V14.6022H8.30811V12H10.5939V10.0167C10.5939 7.76136 11.938 6.5147 13.9934 6.5147C14.9781 6.5147 16.0083 6.69062 16.0083 6.69062V8.9055H14.873C13.7554 8.9055 13.4061 9.59907 13.4061 10.3116V12H15.902L15.5033 14.6022H13.4061V20.8912C17.7093 20.2166 21 16.493 21 12Z" fill="#1977F3"/>
<path d="M15.5033 14.6022L15.902 12H13.4061V10.3116C13.4061 9.60034 13.7542 8.9055 14.873 8.9055H16.0083V6.69062C16.0083 6.69062 14.9781 6.51469 13.9934 6.51469C11.938 6.51469 10.5939 7.76009 10.5939 10.0167V12H8.30811V14.6022H10.5939V20.8912C11.052 20.9633 11.5216 21 12 21C12.4784 21 12.948 20.962 13.4061 20.8912V14.6022H15.5033Z" fill="#FEFEFE"/>
</svg>
