<svg width="18" height="18" viewBox="0 0 18 18" fill="none" xmlns="http://www.w3.org/2000/svg">
<g clip-path="url(#clip0)">
<path d="M18 9.20668C18 8.59489 17.9494 7.97979 17.8415 7.37791H9.18054V10.8436H14.1402C13.9344 11.9614 13.2731 12.9502 12.3048 13.5785V15.8273H15.2638C17.0013 14.2598 18 11.9449 18 9.20668Z" fill="#4285F4"/>
<path d="M9.18053 18C11.657 18 13.7455 17.203 15.2671 15.8273L12.3082 13.5785C11.4849 14.1275 10.4221 14.4384 9.18391 14.4384C6.78841 14.4384 4.75729 12.8543 4.02852 10.7246H0.975098V13.0428C2.53386 16.0819 5.70874 18 9.18053 18Z" fill="#34A853"/>
<path d="M4.0251 10.7246C3.64047 9.60683 3.64047 8.39647 4.0251 7.2787V4.96049H0.975048C-0.327295 7.50358 -0.327295 10.4997 0.975048 13.0428L4.0251 10.7246Z" fill="#FBBC04"/>
<path d="M9.18053 3.56164C10.4896 3.54179 11.7549 4.02462 12.7029 4.91089L15.3245 2.34135C13.6645 0.813518 11.4613 -0.0264599 9.18053 -3.85201e-06C5.70874 -3.85201e-06 2.53386 1.91806 0.975098 4.9605L4.02514 7.2787C4.75054 5.14569 6.78503 3.56164 9.18053 3.56164Z" fill="#EA4335"/>
</g>
<defs>
<clipPath id="clip0">
<rect width="18" height="18" fill="white"/>
</clipPath>
</defs>
</svg>
