<svg width="171" height="128" viewBox="0 0 171 128" fill="none" xmlns="http://www.w3.org/2000/svg">
<path d="M14.6339 125.901C22.716 125.901 29.2678 125.399 29.2678 124.78C29.2678 124.161 22.716 123.659 14.6339 123.659C6.55183 123.659 0 124.161 0 124.78C0 125.399 6.55183 125.901 14.6339 125.901Z" fill="#E6E6E6"/>
<path d="M46.2014 128C54.2835 128 60.8353 127.498 60.8353 126.879C60.8353 126.26 54.2835 125.758 46.2014 125.758C38.1193 125.758 31.5675 126.26 31.5675 126.879C31.5675 127.498 38.1193 128 46.2014 128Z" fill="#E6E6E6"/>
<path d="M157.476 0H83.6324C83.2018 0.000526667 82.789 0.172528 82.4846 0.478277C82.1801 0.784026 82.0088 1.19856 82.0083 1.63095V125.801C82.0085 126.233 82.1796 126.648 82.4842 126.954C82.7887 127.26 83.2017 127.432 83.6324 127.432H157.476C157.863 127.432 158.237 127.294 158.531 127.041C158.825 126.789 159.019 126.439 159.079 126.055C159.094 125.971 159.101 125.886 159.101 125.801V1.63095C159.1 1.19856 158.929 0.784026 158.624 0.478277C158.32 0.172528 157.907 0.000526111 157.476 0ZM158.451 125.801C158.451 126.06 158.348 126.309 158.165 126.493C157.983 126.676 157.735 126.779 157.476 126.779H83.6324C83.374 126.779 83.1261 126.676 82.9434 126.493C82.7607 126.309 82.658 126.06 82.658 125.801V1.63095C82.6583 1.37154 82.7611 1.12286 82.9438 0.939429C83.1265 0.755995 83.3741 0.652771 83.6324 0.652381H157.476C157.735 0.652771 157.982 0.755995 158.165 0.939429C158.348 1.12286 158.451 1.37154 158.451 1.63095V125.801Z" fill="#E6E6E6"/>
<path d="M89.4792 9.15945C89.307 9.15964 89.1419 9.22843 89.0201 9.35074C88.8983 9.47304 88.8298 9.63887 88.8296 9.81183V36.7769C88.8298 36.9499 88.8983 37.1157 89.0201 37.238C89.1419 37.3603 89.307 37.4291 89.4792 37.4293H151.629C151.802 37.4291 151.967 37.3603 152.089 37.238C152.21 37.1157 152.279 36.9499 152.279 36.7769V9.81182C152.279 9.63886 152.21 9.47303 152.089 9.35073C151.967 9.22843 151.802 9.15963 151.629 9.15944L89.4792 9.15945Z" fill="#E6E6E6"/>
<path d="M63.5196 30.2577C63.3533 30.2579 63.1939 30.3243 63.0763 30.4424C62.9588 30.5605 62.8926 30.7206 62.8925 30.8875V56.9193C62.8926 57.0863 62.9588 57.2464 63.0763 57.3645C63.1939 57.4825 63.3533 57.5489 63.5196 57.5491H123.519C123.685 57.5489 123.844 57.4825 123.962 57.3645C124.08 57.2464 124.146 57.0863 124.146 56.9193V30.8875C124.146 30.7206 124.08 30.5605 123.962 30.4424C123.844 30.3243 123.685 30.2579 123.519 30.2577H63.5196Z" fill="#F59FAC"/>
<path d="M32.9803 90.7228C33.0592 92.6725 31.8191 94.4007 30.6578 95.9539C30.1283 96.6816 25.207 101.612 23.7207 103.767C23.3607 104.289 14.5237 114.532 14.0709 115.481C13.9643 115.706 13.8766 115.939 13.8084 116.179C13.5437 117.088 13.532 118.068 13.5553 119.038V119.717C13.6017 121.198 13.6691 122.686 14.0198 124.12C14.0708 124.33 14.1289 124.542 14.1591 124.754C14.0653 124.693 13.9768 124.623 13.8944 124.547L9.0915 120.967L8.79191 120.743C8.48535 119.852 8.19504 118.952 7.86758 118.073C7.67248 117.55 7.88151 116.953 8.22523 116.517C8.59762 116.104 9.00822 115.728 9.45149 115.393C9.79178 115.039 10.0953 114.652 10.3572 114.236C13.6714 109.392 23.0053 92.0102 23.6858 88.5119C24.5829 88.344 25.502 88.3322 26.4031 88.4769L31.1943 89.1159C31.7122 89.1859 32.2789 89.2815 32.6157 89.6803C32.8456 89.9794 32.9735 90.345 32.9803 90.7228Z" fill="#EFB7B9"/>
<path d="M53.4319 94.6969C53.3299 95.4238 53.0741 96.1204 52.6818 96.7399C52.1894 97.4932 46.5342 112.1 44.7761 118.131C44.4533 119.239 44.6229 120.309 44.588 120.68C44.5601 120.988 44.5346 121.296 44.5114 121.601C44.4788 121.981 44.4533 122.361 44.4254 122.739C44.3534 123.74 44.2907 124.792 44.7111 125.701C44.876 126.06 45.1245 126.371 45.2337 126.73C45.0698 126.645 44.9182 126.538 44.7831 126.413L39.9803 122.833C39.5886 121.718 39.2865 120.574 39.0768 119.411C38.9561 118.751 38.898 117.993 39.3091 117.487C39.3327 117.456 39.3583 117.426 39.3857 117.399C39.5198 117.272 39.6697 117.164 39.8316 117.077C39.9802 116.995 40.1229 116.903 40.259 116.802C40.361 116.721 40.453 116.629 40.533 116.526C40.9278 116.037 41.0695 115.349 41.1879 114.703C41.6524 112.058 45.5867 95.8303 45.5123 95.4292C45.4311 95.035 43.1969 91.2545 41.664 90.4149C43.2544 89.0772 45.0685 88.0333 47.022 87.3318C47.3662 87.1707 47.7472 87.1055 48.1251 87.1428C48.3273 87.1875 48.5205 87.2664 48.6965 87.3761C49.7485 87.9685 50.5544 88.9013 51.3255 89.8342C52.4751 91.2382 53.6247 92.8894 53.4319 94.6969Z" fill="#EFB7B9"/>
<path d="M51.336 89.0779C51.1873 90.4884 47.241 91.7365 42.2508 92.5131C40.9621 92.7137 37.7957 84.8812 36.4151 85.0135C34.755 85.1727 34.8709 93.2803 33.2291 93.3238C27.6399 93.4721 24.028 92.8969 22.8604 91.2329C22.2287 91.079 21.4669 90.7152 21.4971 90.0668C21.518 89.696 21.8106 89.3672 21.8083 89.0033C21.8083 88.369 23.6407 81.4237 24.7207 78.1283C24.9901 77.3097 25.1851 76.4701 25.4894 75.6608C26.8039 72.0132 27.3683 69.2146 29.7697 66.178C30.1371 65.752 30.4393 65.2733 30.6661 64.7577C30.8723 64.1388 30.9797 63.491 30.9843 62.8383L31.1167 60.5551C34.677 60.3872 38.1352 60.4548 41.6189 61.2104C41.8079 61.2048 41.9914 61.2748 42.129 61.4051C42.2666 61.5353 42.347 61.7151 42.3526 61.905L42.3528 61.9101C42.4875 62.745 42.5819 63.5839 42.6361 64.4265C42.6377 64.6127 42.6643 64.7979 42.7151 64.9769C42.8065 65.2034 42.9335 65.4136 43.0913 65.5996C45.1072 68.2537 46.3427 71.4302 47.3182 74.6113C48.2936 77.7924 49.0693 81.0622 50.2956 84.1733C50.7182 85.2461 51.271 86.4519 51.3825 87.6017C51.8237 87.9305 51.7262 88.6745 51.336 89.0779Z" fill="#2F2E41"/>
<path d="M54.7198 50.8344C55.3329 50.3143 55.946 49.7919 56.5081 49.2182C57.3011 48.3741 58.0338 47.4747 58.7005 46.5268C59.4112 45.5543 60.1172 44.5584 60.5584 43.4343C61.0578 42.1469 61.2111 40.6823 62.0796 39.6142C62.1778 39.4754 62.3143 39.3684 62.4721 39.3063C62.9668 39.15 63.3361 39.7727 63.4313 40.2882C63.8958 42.8116 62.788 45.3304 61.7104 47.6579C61.355 48.4252 60.9834 49.2135 60.368 49.7942C60.0303 50.0841 59.6776 50.3558 59.3113 50.6082C58.7672 51.0523 58.2664 51.5474 57.8156 52.0868C57.0415 52.9699 56.3052 53.8849 55.607 54.8318C54.7407 55.9979 53.9278 57.22 52.9013 58.2485C51.8748 59.277 50.5905 60.1143 49.1529 60.3172C49.5639 60.2612 49.4292 57.838 49.3851 57.5325C49.3224 57.0894 49.0205 56.567 49.0112 56.1332C48.9996 55.6014 49.2156 55.5245 49.6522 55.1513L54.7198 50.8344Z" fill="#EFB7B9"/>
<path d="M37.4826 35.5725C37.4826 35.5725 36.0891 42.5691 34.4634 43.7352C32.8377 44.9013 43.2887 46.3006 43.2887 46.3006C43.2887 46.3006 43.521 40.7033 46.3079 38.1379C49.0948 35.5725 37.4826 35.5725 37.4826 35.5725Z" fill="#EFB7B9"/>
<path d="M46.8468 63.356C47.1913 63.4644 47.552 63.5118 47.9128 63.4959C49.1321 63.4826 50.3338 63.2016 51.4336 62.6727C51.5367 62.6326 51.6278 62.5668 51.6984 62.4814C51.7394 62.3921 51.7616 62.2953 51.7636 62.1969C51.7656 62.0986 51.7474 62.0009 51.71 61.91C51.055 59.2513 52.3185 56.2358 51.0643 53.8056C49.7011 54.2511 48.2054 54.7385 46.8421 55.1723C46.633 55.2575 46.4079 55.2957 46.1825 55.2842C45.9125 55.2279 45.6652 55.0923 45.4719 54.8947C43.9948 53.612 43.0635 51.8256 42.2204 50.0601C41.3774 48.2946 40.5506 46.4732 39.2221 45.0365C37.8937 43.5999 36.6512 42.8396 34.7096 43.0472C34.0204 43.1418 33.3877 43.481 32.926 44.0034C31.8298 45.1881 31.6114 46.9909 31.997 48.5628C32.3825 50.1347 33.2674 51.5271 34.187 52.8541C35.3854 54.5846 36.6744 56.2894 38.3396 57.5745C39.2404 58.2296 40.1754 58.8361 41.1405 59.3913" fill="#E6E6E6"/>
<path d="M42.9404 40.8199C46.7884 40.8199 49.9078 37.6874 49.9078 33.8233C49.9078 29.9592 46.7884 26.8267 42.9404 26.8267C39.0924 26.8267 35.973 29.9592 35.973 33.8233C35.973 37.6874 39.0924 40.8199 42.9404 40.8199Z" fill="#EFB7B9"/>
<path d="M45.7273 53.9596C43.6327 56.4398 43.1901 59.6084 42.7615 62.7357C40.6573 62.0197 38.3256 63.2208 36.1471 62.7823C35.053 62.4165 33.8955 62.2816 32.747 62.386C31.9412 62.3089 31.1422 61.8004 30.3735 62.0593C29.0955 62.8722 30.34 57.8368 30.2641 56.3733C29.5943 31.6865 49.534 43.6961 45.7273 53.9596Z" fill="#E6E6E6"/>
<path d="M57.5068 51.7673C58.1199 51.2472 58.733 50.7248 59.2951 50.1511C60.0881 49.307 60.8208 48.4076 61.4875 47.4597C62.1981 46.4872 62.9042 45.4913 63.3454 44.3672C63.8448 43.0798 63.998 41.6152 64.8666 40.5471C64.9648 40.4083 65.1013 40.3013 65.2591 40.2392C65.7538 40.0829 66.1231 40.7056 66.2183 41.2211C66.6828 43.7445 65.575 46.2633 64.4974 48.5908C64.142 49.3581 63.7704 50.1464 63.155 50.7271C62.8173 51.017 62.4646 51.2887 62.0983 51.5411C61.5542 51.9852 61.0534 52.4803 60.6026 53.0197C59.8285 53.9028 59.0922 54.8178 58.3939 55.7647C57.5277 56.9308 56.7148 58.1529 55.6883 59.1814C54.6618 60.2099 53.3774 61.0471 51.9398 61.25C52.3509 61.1941 52.2162 58.7709 52.1721 58.4654C52.1094 58.0223 51.8075 57.4999 51.7982 57.0661C51.7866 56.5343 52.0026 56.4574 52.4392 56.0842L57.5068 51.7673Z" fill="#EFB7B9"/>
<path opacity="0.1" d="M45.0307 54.1928L45.0144 54.2231C44.6126 54.9718 44.0111 55.6014 43.5977 56.3478C43.1332 57.192 42.9172 58.1552 42.7315 59.1044C42.6029 59.7419 42.4845 60.3801 42.3761 61.0192C41.5421 60.5388 40.7357 60.0117 39.9608 59.4403C38.2956 58.1552 37.0066 56.4504 35.8082 54.7175C34.8792 53.3905 33.9967 51.9982 33.6181 50.4286C33.2396 48.859 33.4602 47.0539 34.5471 45.8691C35.0088 45.3462 35.6414 45.0062 36.3308 44.9106C38.2723 44.703 39.4986 45.4563 40.827 46.8907C42.1555 48.325 42.9776 50.1558 43.8253 51.9142C44.2016 52.6769 44.5871 53.4581 45.0307 54.1928Z" fill="black"/>
<path d="M37.4966 43.9801C36.8074 44.0747 36.1747 44.4139 35.7129 44.9363C34.6168 46.121 34.3984 47.9238 34.784 49.4957C35.1695 51.0676 36.0543 52.46 36.974 53.787C38.1724 55.5175 39.4614 57.2223 41.1266 58.5074C42.0274 59.1625 42.9624 59.769 43.9275 60.3242C45.5312 61.3161 47.0723 61.0072 48.5422 62.1899C48.8644 62.4829 49.2334 62.7194 49.6337 62.8896C49.9783 62.998 50.339 63.0453 50.6997 63.0295C51.9191 63.0162 53.1208 62.2688 54.2206 61.7398C54.3236 61.6998 54.4148 61.6339 54.4853 61.5485C54.5264 61.4593 54.5486 61.3624 54.5506 61.2641C54.5526 61.1657 54.5343 61.0681 54.497 60.9772C53.842 58.3184 55.1054 57.1687 53.8513 54.7385C52.488 55.1839 50.9924 55.6714 49.6291 56.1052C49.42 56.1904 49.1949 56.2286 48.9695 56.2171C48.6995 56.1608 48.4521 56.0252 48.2589 55.8276C46.7818 54.5449 45.8505 52.7585 45.0074 50.993C44.1643 49.2275 43.3376 47.4061 42.0091 45.9694C40.6807 44.5327 39.4382 43.7725 37.4966 43.9801Z" fill="#E6E6E6"/>
<path d="M47.1985 126.814C46.888 127.131 46.4842 127.339 46.0468 127.408C45.6093 127.477 45.1614 127.402 44.7692 127.196C44.6054 127.111 44.4538 127.005 44.3187 126.879L39.5158 123.299L37.6114 121.879C37.4111 121.692 37.2508 121.466 37.1402 121.214C37.0297 120.963 36.9712 120.692 36.9684 120.417C36.9655 120.142 37.0184 119.87 37.1238 119.617C37.2291 119.363 37.3848 119.134 37.5812 118.942L38.8446 117.954L39.3672 117.543L40.0686 116.993L40.6817 116.512L44.6159 118.728L44.6833 118.859L47.6607 124.624C47.7998 124.995 47.8301 125.398 47.7483 125.786C47.6664 126.175 47.4756 126.531 47.1985 126.814Z" fill="#2F2E41"/>
<path d="M16.3097 124.948C15.9992 125.265 15.5954 125.473 15.158 125.542C14.7205 125.611 14.2726 125.537 13.8804 125.33C13.8177 125.298 13.755 125.26 13.6946 125.221C13.6008 125.159 13.5123 125.09 13.4299 125.013L8.62702 121.433L8.32742 121.209L6.72261 120.013C6.52229 119.826 6.36197 119.6 6.25142 119.349C6.14087 119.097 6.0824 118.826 6.07958 118.551C6.07675 118.277 6.12963 118.004 6.23499 117.751C6.34034 117.497 6.49598 117.268 6.69242 117.077L7.95584 116.088L8.47839 115.677L9.17977 115.127L9.7929 114.647L9.89277 114.703L13.3439 116.645L13.7271 116.862L13.7945 116.993L16.7719 122.758C16.911 123.129 16.9413 123.533 16.8595 123.921C16.7776 124.309 16.5868 124.665 16.3097 124.948Z" fill="#2F2E41"/>
<path d="M49.5004 27.8591C46.8025 24.7895 43.7605 23.3215 40.1132 24.6694C34.2614 22.697 26.5691 36.2522 31.3057 41.1681L39.3274 41.8397L41.7836 37.3983L40.9145 41.9988L47.3308 42.6419C44.0575 37.5312 45.1075 32.6186 49.5004 27.8591Z" fill="#2F2E41"/>
<path d="M79.7204 50.0169C83.0826 50.0169 85.8083 47.2798 85.8083 43.9034C85.8083 40.527 83.0826 37.7899 79.7204 37.7899C76.3581 37.7899 73.6324 40.527 73.6324 43.9034C73.6324 47.2798 76.3581 50.0169 79.7204 50.0169Z" fill="white"/>
<path d="M93.4605 43.09C93.2737 43.0931 93.0957 43.1697 92.9647 43.3034C92.8337 43.4372 92.7603 43.6172 92.7603 43.8048C92.7603 43.9924 92.8337 44.1724 92.9647 44.3062C93.0957 44.4399 93.2737 44.5165 93.4605 44.5196H112.682C112.871 44.5227 113.053 44.4504 113.189 44.3185C113.325 44.1867 113.403 44.0061 113.406 43.8165C113.409 43.627 113.337 43.4439 113.206 43.3077C113.074 43.1714 112.894 43.0931 112.706 43.09C112.698 43.0899 112.69 43.0899 112.682 43.09H93.4605Z" fill="white"/>
<path d="M93.4606 38.9486C93.2738 38.9517 93.0957 39.0284 92.9648 39.1621C92.8338 39.2958 92.7604 39.4758 92.7604 39.6634C92.7604 39.851 92.8338 40.031 92.9648 40.1647C93.0957 40.2985 93.2738 40.3751 93.4606 40.3782H103.059C103.248 40.3812 103.43 40.3088 103.566 40.1769C103.701 40.0451 103.779 39.8646 103.782 39.6751C103.785 39.4857 103.714 39.3027 103.582 39.1665C103.451 39.0302 103.272 38.9519 103.083 38.9486C103.075 38.9485 103.067 38.9485 103.059 38.9486H93.4606Z" fill="white"/>
<path d="M93.4606 47.4286C93.2738 47.4317 93.0957 47.5084 92.9648 47.6421C92.8338 47.7758 92.7604 47.9559 92.7604 48.1434C92.7604 48.331 92.8338 48.511 92.9648 48.6448C93.0957 48.7785 93.2738 48.8551 93.4606 48.8582H112.682C112.776 48.8598 112.869 48.8429 112.956 48.8085C113.043 48.774 113.122 48.7227 113.189 48.6574C113.257 48.5921 113.31 48.5141 113.348 48.4279C113.385 48.3418 113.405 48.2491 113.406 48.1552C113.408 48.0613 113.391 47.968 113.357 47.8806C113.322 47.7933 113.271 47.7136 113.206 47.6461C113.141 47.5786 113.063 47.5247 112.977 47.4874C112.892 47.4501 112.799 47.4301 112.706 47.4286C112.698 47.4285 112.69 47.4285 112.682 47.4286H93.4606Z" fill="white"/>
<path d="M99.2878 67.6563C100.125 67.6563 100.804 66.9748 100.804 66.1341C100.804 65.2934 100.125 64.6119 99.2878 64.6119C98.4506 64.6119 97.772 65.2934 97.772 66.1341C97.772 66.9748 98.4506 67.6563 99.2878 67.6563Z" fill="#E6E6E6"/>
<path d="M105.535 65.3459C105.329 65.3494 105.133 65.434 104.988 65.5814C104.844 65.7288 104.763 65.9273 104.763 66.1341C104.763 66.3408 104.844 66.5393 104.988 66.6867C105.133 66.8342 105.329 66.9188 105.535 66.9223H142.539C142.746 66.9248 142.946 66.8446 143.095 66.6993C143.244 66.554 143.33 66.3554 143.333 66.147C143.337 65.9385 143.258 65.7372 143.114 65.587C142.969 65.4369 142.772 65.3502 142.565 65.3459C142.556 65.3457 142.547 65.3457 142.539 65.3459H105.535Z" fill="#E6E6E6"/>
<path d="M99.2878 75.05C100.125 75.05 100.804 74.3684 100.804 73.5277C100.804 72.687 100.125 72.0055 99.2878 72.0055C98.4506 72.0055 97.772 72.687 97.772 73.5277C97.772 74.3684 98.4506 75.05 99.2878 75.05Z" fill="#E6E6E6"/>
<path d="M105.535 72.7395C105.329 72.743 105.133 72.8276 104.989 72.975C104.844 73.1225 104.763 73.3209 104.763 73.5277C104.763 73.7345 104.844 73.933 104.989 74.0804C105.133 74.2279 105.329 74.3124 105.535 74.3159H142.539C142.747 74.3185 142.947 74.2384 143.096 74.0931C143.245 73.9478 143.33 73.7491 143.334 73.5406C143.337 73.3321 143.258 73.1307 143.114 72.9806C142.97 72.8304 142.772 72.7438 142.565 72.7395C142.556 72.7394 142.548 72.7394 142.539 72.7395H105.535Z" fill="#E6E6E6"/>
<path d="M99.2878 82.4436C100.125 82.4436 100.804 81.7621 100.804 80.9214C100.804 80.0807 100.125 79.3992 99.2878 79.3992C98.4506 79.3992 97.772 80.0807 97.772 80.9214C97.772 81.7621 98.4506 82.4436 99.2878 82.4436Z" fill="#E6E6E6"/>
<path d="M105.535 80.1332C105.329 80.1367 105.133 80.2213 104.989 80.3687C104.844 80.5161 104.763 80.7146 104.763 80.9214C104.763 81.1282 104.844 81.3266 104.989 81.4741C105.133 81.6215 105.329 81.7061 105.535 81.7096H142.539C142.747 81.7122 142.947 81.6321 143.096 81.4868C143.245 81.3414 143.33 81.1428 143.334 80.9343C143.337 80.7258 143.258 80.5244 143.114 80.3743C142.97 80.2241 142.772 80.1375 142.565 80.1332C142.556 80.1331 142.548 80.1331 142.539 80.1332H105.535Z" fill="#E6E6E6"/>
<path d="M99.2878 89.8373C100.125 89.8373 100.804 89.1557 100.804 88.315C100.804 87.4743 100.125 86.7928 99.2878 86.7928C98.4506 86.7928 97.772 87.4743 97.772 88.315C97.772 89.1557 98.4506 89.8373 99.2878 89.8373Z" fill="#E6E6E6"/>
<path d="M105.535 87.5269C105.329 87.5304 105.133 87.615 104.988 87.7624C104.844 87.9098 104.763 88.1083 104.763 88.3151C104.763 88.5218 104.844 88.7203 104.988 88.8677C105.133 89.0152 105.329 89.0997 105.535 89.1033H142.539C142.642 89.1054 142.745 89.087 142.841 89.0492C142.937 89.0114 143.025 88.9548 143.1 88.8828C143.174 88.8107 143.234 88.7247 143.275 88.6295C143.316 88.5343 143.338 88.4318 143.34 88.3281C143.342 88.2243 143.323 88.1212 143.285 88.0247C143.247 87.9282 143.19 87.8402 143.118 87.7657C143.046 87.6913 142.96 87.6319 142.865 87.5909C142.77 87.5499 142.668 87.5281 142.564 87.5269C142.556 87.5267 142.547 87.5267 142.539 87.5269H105.535Z" fill="#E6E6E6"/>
<path d="M99.2878 97.2309C100.125 97.2309 100.804 96.5494 100.804 95.7087C100.804 94.868 100.125 94.1865 99.2878 94.1865C98.4506 94.1865 97.772 94.868 97.772 95.7087C97.772 96.5494 98.4506 97.2309 99.2878 97.2309Z" fill="#E6E6E6"/>
<path d="M105.535 94.9205C105.329 94.924 105.133 95.0086 104.988 95.156C104.844 95.3035 104.763 95.502 104.763 95.7087C104.763 95.9155 104.844 96.114 104.988 96.2614C105.133 96.4088 105.329 96.4934 105.535 96.4969H142.539C142.746 96.4994 142.946 96.4193 143.095 96.274C143.244 96.1287 143.33 95.9301 143.333 95.7216C143.337 95.5131 143.258 95.3118 143.114 95.1617C142.969 95.0115 142.772 94.9248 142.565 94.9205C142.556 94.9204 142.547 94.9204 142.539 94.9205H105.535Z" fill="#E6E6E6"/>
<path d="M99.2878 104.625C100.125 104.625 100.804 103.943 100.804 103.102C100.804 102.262 100.125 101.58 99.2878 101.58C98.4506 101.58 97.772 102.262 97.772 103.102C97.772 103.943 98.4506 104.625 99.2878 104.625Z" fill="#E6E6E6"/>
<path d="M105.535 102.314C105.329 102.318 105.133 102.402 104.988 102.55C104.844 102.697 104.763 102.896 104.763 103.102C104.763 103.309 104.844 103.508 104.988 103.655C105.133 103.802 105.329 103.887 105.535 103.891H142.539C142.746 103.893 142.946 103.813 143.095 103.668C143.244 103.522 143.33 103.324 143.333 103.115C143.337 102.907 143.258 102.705 143.114 102.555C142.969 102.405 142.772 102.318 142.565 102.314C142.556 102.314 142.547 102.314 142.539 102.314H105.535Z" fill="#E6E6E6"/>
<path d="M99.2878 112.018C100.125 112.018 100.804 111.337 100.804 110.496C100.804 109.655 100.125 108.974 99.2878 108.974C98.4506 108.974 97.772 109.655 97.772 110.496C97.772 111.337 98.4506 112.018 99.2878 112.018Z" fill="#E6E6E6"/>
<path d="M105.535 109.708C105.329 109.711 105.133 109.796 104.989 109.943C104.844 110.091 104.763 110.289 104.763 110.496C104.763 110.703 104.844 110.901 104.989 111.049C105.133 111.196 105.329 111.281 105.535 111.284H142.539C142.747 111.287 142.947 111.207 143.096 111.061C143.245 110.916 143.33 110.717 143.334 110.509C143.337 110.3 143.258 110.099 143.114 109.949C142.97 109.799 142.772 109.712 142.565 109.708C142.556 109.708 142.548 109.708 142.539 109.708H105.535Z" fill="#E6E6E6"/>
<path d="M171 99.6382C170.967 100.441 170.16 117.005 159.079 126.055C158.615 126.434 158.134 126.798 157.634 127.149L157.258 126.779H157.476C157.735 126.779 157.983 126.676 158.165 126.493C158.348 126.309 158.451 126.06 158.451 125.801V93.1514C158.682 91.8988 158.901 90.668 159.1 89.4697C160.181 82.9568 160.681 77.4551 159.871 75.1696C160.222 76.0524 167.264 94.1103 163.44 112.51C167.228 107.302 170.822 101.835 171 99.6382Z" fill="#E6E6E6"/>
</svg>
