<svg width="121" height="34" viewBox="0 0 121 34" fill="none" xmlns="http://www.w3.org/2000/svg">
<path d="M14.1276 11.2213L12.4957 0.357465H8.78121L7.05605 6.32558L5.33089 0.357465H1.63191L0 11.2213H3.4814L3.9632 5.20656L5.64173 11.2213H8.47037L10.1644 5.20656L10.6307 11.2213H14.1276Z" fill="#284296"/>
<path d="M24.5137 3.09285V0.373007H16.1521V11.2368H24.5137V8.517H19.4159V7.10268H23.9697V4.49163H19.4159V3.09285H24.5137Z" fill="#284296"/>
<path d="M33.8963 0.357465V6.34112C33.8963 7.87978 33.2124 8.67242 31.9846 8.67242C30.7413 8.67242 30.1041 7.87978 30.1041 6.34112V0.357465H26.8402V6.34112C26.8402 9.54276 28.1924 11.5943 31.9846 11.5943C35.7613 11.5943 37.1601 9.54276 37.1601 6.34112V0.357465H33.8963Z" fill="#284296"/>
<path d="M51.7489 11.2368H55.0127L51.5158 0.373007H47.6614L44.1489 11.2368H47.4127L48.0499 8.84338H51.1272L51.7489 11.2368ZM48.7648 6.12353L49.5886 2.9996L50.4123 6.12353H48.7648Z" fill="#284296"/>
<path d="M70.8467 11.2213L69.2148 0.357465H65.5003L63.7751 6.32558L62.0499 0.357465H58.351L56.7191 11.2213H60.2005L60.6823 5.20656L62.3608 11.2213H65.1894L66.8835 5.20656L67.3498 11.2213H70.8467Z" fill="#284296"/>
<path d="M72.8712 11.2213H76.135V0.357465H72.8712V11.2213Z" fill="#284296"/>
<path d="M84.4194 4.70921V7.42906H86.0669V7.55339C85.5851 8.2217 84.8391 8.67242 83.9532 8.67242C82.4145 8.67242 81.28 7.32026 81.28 5.79715C81.28 4.2585 82.4145 2.90635 83.9532 2.90635C84.8391 2.90635 85.5851 3.35706 86.0669 4.02537L88.4137 2.08262C87.3413 0.808183 85.7405 0 83.9532 0C80.7515 0 78.156 2.59551 78.156 5.79715C78.156 8.9988 80.7515 11.5943 83.9532 11.5943C85.2276 11.5943 86.4088 11.1747 87.3724 10.4753L87.7143 11.2213H89.2685V4.70921H84.4194Z" fill="#284296"/>
<path d="M97.1001 0C93.8985 0 91.3029 2.59551 91.3029 5.79715C91.3029 8.9988 93.8985 11.5943 97.1001 11.5943C100.302 11.5943 102.897 8.9988 102.897 5.79715C102.897 2.59551 100.302 0 97.1001 0ZM97.1001 8.68796C95.5614 8.68796 94.4269 7.33581 94.4269 5.79715C94.4269 4.27404 95.5614 2.92189 97.1001 2.92189C98.6388 2.92189 99.7733 4.27404 99.7733 5.79715C99.7733 7.33581 98.6388 8.68796 97.1001 8.68796Z" fill="#284296"/>
<path d="M46.1596 19.3808C45.4447 19.3808 42.585 20.189 39.259 21.4013C36.4614 19.3497 29.6541 20.2823 29.6541 17.8577C29.6541 14.5317 39.8185 5.7039 43.0823 5.7039C43.9216 5.7039 44.2635 6.17016 44.2635 6.88509C44.2635 9.58939 39.5698 15.8373 37.425 15.8373C37.0831 15.8373 36.9277 15.9927 36.9277 16.1792C36.9277 16.7698 38.0467 17.7955 39.5077 17.7955C42.6782 17.7955 46.3772 10.6462 46.3772 7.6311C46.3772 5.61064 44.077 4.24295 42.1498 4.24295C36.7101 4.24295 26.4524 12.9775 26.4524 18.1685C26.4524 22.5203 33.6639 21.681 36.679 22.3338C31.3015 24.4475 25.6442 27.2451 25.6442 29.1412C25.6442 30.7575 27.3538 32.0941 29.1256 32.0941C32.4827 32.0941 40.4091 27.7113 40.4091 23.6082C40.4091 23.2352 40.3469 22.9244 40.2226 22.6446C42.9891 21.5567 45.4758 20.7485 46.8746 20.7485C47.0921 20.7485 47.2165 20.5931 47.2165 20.3755C47.2165 19.9714 46.8124 19.3808 46.1596 19.3808ZM27.6958 29.079C27.6958 28.5506 32.8868 25.753 37.9846 23.5461C37.4561 25.8774 29.6541 29.2344 28.0066 29.2344C27.8201 29.2344 27.6958 29.1723 27.6958 29.079Z" fill="#F56584"/>
<path d="M59.0828 19.443C58.0881 20.4066 52.5862 25.4733 49.3224 25.4733C48.4831 25.4733 48.1101 25.0381 48.1101 24.3232C48.1101 24.2299 48.1412 24.1367 48.1412 24.0434C52.2132 23.4528 55.6635 18.324 55.6635 16.2103C55.6635 15.3399 54.5756 14.0344 52.9903 14.0344C50.4725 14.0344 44.8774 21.5878 44.8774 24.5718C44.8774 26.1571 46.1519 27.5559 47.8615 27.5559C52.8349 27.5559 58.6476 21.6499 59.7977 20.4998C59.8909 20.4066 59.922 20.2823 59.922 20.1579C59.922 19.7849 59.6112 19.3497 59.3004 19.3497C59.2382 19.3497 59.1449 19.3808 59.0828 19.443ZM53.9228 15.3088C53.985 15.3088 54.0161 15.371 54.0161 15.4953C54.0161 16.49 51.3429 21.5878 48.8251 22.023C50.1928 19.07 53.2701 15.3088 53.9228 15.3088Z" fill="#F56584"/>
<path d="M71.7895 19.443C70.7948 20.4066 65.293 25.4733 62.0292 25.4733C61.1899 25.4733 60.848 25.0381 60.848 24.3542C60.848 21.681 65.7903 15.3088 66.6296 15.3088C66.6918 15.3088 66.7229 15.371 66.7229 15.4642C66.7229 16.1792 65.1997 19.1322 64.2672 19.1322C64.0496 19.1322 63.9564 19.2565 63.9564 19.4119C63.9564 19.8782 64.6402 20.7174 65.5106 20.7174C66.8472 20.7174 68.3703 17.9199 68.3703 16.2103C68.3703 15.3399 67.2824 14.0344 65.6971 14.0344C63.1793 14.0344 57.5842 21.5878 57.5842 24.5718C57.5842 26.1571 58.8586 27.5559 60.5682 27.5559C65.5417 27.5559 71.3544 21.6499 72.5045 20.4998C72.5977 20.4066 72.6288 20.2823 72.6288 20.1579C72.6288 19.7849 72.318 19.3497 72.0071 19.3497C71.945 19.3497 71.8517 19.3808 71.7895 19.443Z" fill="#F56584"/>
<path d="M70.5707 21.2769C70.5707 21.2769 70.5707 21.2769 70.6018 21.2769C70.5707 21.2769 70.5707 21.2769 70.5707 21.2769ZM84.5585 19.4119C83.657 20.3133 78.8701 24.5408 77.9998 24.5408C77.8754 24.5408 77.8443 24.4475 77.8443 24.2921C77.8443 23.3285 79.8337 19.7227 79.8337 18.9767C79.8337 17.4847 78.3417 17.0184 77.0983 16.6144C78.1863 15.2777 79.0255 13.9722 79.0255 13.1019C79.0255 12.4491 78.5282 12.0139 77.2848 12.0139C75.109 12.0139 72.3425 14.5006 72.3425 15.8373C72.3425 16.8319 73.4304 17.2049 74.6116 17.4225C71.5654 20.5309 70.4775 21.4324 70.4775 21.5256C70.4775 21.8365 70.9126 22.1784 71.3167 22.1784C71.2545 22.1784 72.156 22.054 76.1658 17.7023C76.974 17.8266 77.6268 17.982 77.6268 18.3861C77.6268 19.3187 74.8292 22.4581 74.8292 24.0745C74.8292 25.38 75.8861 26.499 77.0672 26.499C79.0877 26.499 84.5896 21.1837 85.2734 20.4688C85.3666 20.3755 85.3977 20.2823 85.3977 20.1579C85.3977 19.7849 85.0558 19.3187 84.7761 19.3187C84.6828 19.3187 84.6206 19.3497 84.5585 19.4119ZM75.2644 15.4332C75.2644 14.7804 77.3781 13.2573 77.6889 13.2573C77.8443 13.2573 77.9065 13.3195 77.9065 13.4438C77.9065 13.8479 77.0051 14.9358 75.8239 16.1481C75.482 15.9927 75.2644 15.744 75.2644 15.4332Z" fill="#F56584"/>
<path d="M97.2638 19.443C96.2691 20.4066 90.7672 25.4733 87.5034 25.4733C86.6642 25.4733 86.2912 25.0381 86.2912 24.3232C86.2912 24.2299 86.3222 24.1367 86.3222 24.0434C90.3942 23.4528 93.8445 18.324 93.8445 16.2103C93.8445 15.3399 92.7566 14.0344 91.1713 14.0344C88.6535 14.0344 83.0584 21.5878 83.0584 24.5718C83.0584 26.1571 84.3329 27.5559 86.0425 27.5559C91.0159 27.5559 96.8286 21.6499 97.9787 20.4998C98.072 20.4066 98.103 20.2823 98.103 20.1579C98.103 19.7849 97.7922 19.3497 97.4814 19.3497C97.4192 19.3497 97.3259 19.3808 97.2638 19.443ZM92.1038 15.3088C92.166 15.3088 92.1971 15.371 92.1971 15.4953C92.1971 16.49 89.5239 21.5878 87.0061 22.023C88.3738 19.07 91.4511 15.3088 92.1038 15.3088Z" fill="#F56584"/>
<path d="M109.411 11.0814C109.069 10.7395 108.323 10.6152 107.359 10.6152C106.955 10.6152 106.52 10.6462 106.054 10.6773C107.484 8.4082 109.629 5.79715 109.629 5.64173C109.629 5.20655 108.696 4.24295 107.857 4.24295C107.142 4.24295 105.836 6.10799 102.697 11.2057C99.4953 11.8585 97.5991 12.6045 97.5991 13.6303C97.5991 13.9101 97.6924 14.1587 97.8167 14.1587C97.8789 14.1587 97.9411 14.1276 98.0032 14.0655C98.3762 13.6925 99.8372 13.3195 101.547 13.0397C98.4073 18.1685 95.1435 23.9812 95.1435 25.4422C95.1435 26.7788 96.2004 27.5559 97.3816 27.5559C99.3709 27.5559 105.557 21.2148 106.24 20.4998C106.334 20.4066 106.365 20.3133 106.365 20.189C106.365 19.816 106.023 19.3187 105.712 19.3187C105.619 19.3187 99.1533 25.5976 98.0032 25.5976C97.9411 25.5976 97.91 25.5665 97.91 25.4733C97.91 24.5097 101.454 18.0753 104.748 12.7289C104.997 12.7289 105.246 12.7289 105.494 12.7289C107.359 12.7289 108.852 12.9464 108.852 13.6303C108.852 14.0033 108.945 14.1587 109.069 14.1587C109.411 14.1587 109.939 13.3195 109.939 12.418C109.939 11.9518 109.784 11.4855 109.411 11.0814Z" fill="#F56584"/>
<path d="M118.995 19.443C118.156 20.2823 116.291 20.8107 114.301 21.0594C114.768 20.0647 115.047 19.2565 115.047 18.7902C115.047 17.2049 113.618 15.0912 111.38 15.0912C109.141 15.0912 105.411 17.8266 105.411 19.9092C105.411 20.2823 105.442 20.5931 105.567 20.8729C104.852 21.8986 103.888 23.9502 103.888 24.7583C103.888 26.2193 104.852 27.5559 107.245 27.5559C109.577 27.5559 111.877 25.1003 113.338 22.7379C116.26 22.3338 119.834 21.1215 119.834 20.1579C119.834 19.7849 119.492 19.3497 119.182 19.3497C119.119 19.3497 119.057 19.3808 118.995 19.443ZM112.374 16.6144C112.747 16.6144 112.903 16.863 112.903 17.2671C112.903 18.1064 112.219 19.6295 111.286 21.2148C109.079 21.1215 107.276 20.6553 107.276 19.7849C107.276 18.9456 109.981 16.6144 112.374 16.6144ZM106.841 26.0639C106.562 26.0639 106.468 25.8152 106.468 25.4111C106.468 24.634 106.872 23.3285 107.339 22.427C108.116 22.7379 109.079 22.8933 110.136 22.9244C108.893 24.6651 107.556 26.0639 106.841 26.0639Z" fill="#F56584"/>
<path fill-rule="evenodd" clip-rule="evenodd" d="M34.2733 22.0538C34.1662 22.0458 34.0579 22.0379 33.9488 22.0298C30.6245 21.7854 26.4524 21.4786 26.4524 18.1685C26.4524 12.9775 36.7101 4.24295 42.1498 4.24295C44.077 4.24295 46.3772 5.61064 46.3772 7.6311C46.3772 10.6462 42.6782 17.7955 39.5077 17.7955C38.0467 17.7955 36.9277 16.7698 36.9277 16.1792C36.9277 15.9927 37.0831 15.8373 37.425 15.8373C39.5698 15.8373 44.2635 9.58938 44.2635 6.88508C44.2635 6.17015 43.9216 5.70389 43.0823 5.70389C39.8185 5.70389 29.6541 14.5317 29.6541 17.8577C29.6541 19.1917 31.7149 19.5094 34.0347 19.8671C35.9312 20.1595 38.0007 20.4785 39.259 21.4013C42.0998 20.3658 44.6004 19.6252 45.715 19.4312C45.9054 19.398 46.0553 19.3808 46.1596 19.3808C46.4011 19.3808 46.6085 19.4616 46.774 19.5839C46.7763 19.5856 46.7786 19.5873 46.7809 19.589C46.8138 19.6137 46.8451 19.6401 46.8746 19.6678C46.8896 19.6819 46.9042 19.6964 46.9183 19.7111C47.1298 19.3845 47.352 19.0586 47.5819 18.7376C49.3711 16.2396 51.6299 14.0344 52.9903 14.0344C53.2739 14.0344 53.5416 14.0762 53.79 14.1498C53.8349 14.1631 53.8792 14.1774 53.9228 14.1928C54.3996 14.3603 54.7986 14.6449 55.0938 14.9699C55.4574 15.3701 55.6635 15.8314 55.6635 16.2103C55.6635 18.324 52.2132 23.4528 48.1412 24.0434C48.1412 24.09 48.1335 24.1367 48.1257 24.1833C48.1179 24.2299 48.1101 24.2765 48.1101 24.3232C48.1101 24.5993 48.1658 24.8338 48.2825 25.0175C48.3205 25.0773 48.365 25.1317 48.4161 25.1805C48.6144 25.3697 48.9129 25.4733 49.3224 25.4733C51.7988 25.4733 55.5637 22.5563 57.6706 20.728C58.3405 20.1467 58.8428 19.6755 59.0828 19.443C59.1449 19.3808 59.2382 19.3497 59.3004 19.3497C59.4464 19.3497 59.5925 19.4458 59.7063 19.5864C59.9214 19.2586 60.1469 18.9321 60.3799 18.6111C62.154 16.1656 64.3597 14.0344 65.6971 14.0344C65.9807 14.0344 66.2485 14.0762 66.4969 14.1498C66.5418 14.1631 66.586 14.1774 66.6296 14.1928C67.1086 14.3611 67.5092 14.6476 67.8048 14.9745C68.1658 15.3737 68.3703 15.8329 68.3703 16.2103C68.3703 17.9199 66.8472 20.7174 65.5106 20.7174C65.1012 20.7174 64.7332 20.5318 64.4581 20.2866C64.4535 20.2825 64.4489 20.2784 64.4443 20.2743C64.3798 20.2156 64.3205 20.1537 64.2672 20.0903C64.2097 20.0218 64.1592 19.9516 64.1165 19.8817C64.0138 19.7134 63.9564 19.547 63.9564 19.4119C63.9564 19.2565 64.0496 19.1321 64.2672 19.1321C64.4413 19.1321 64.6359 19.0292 64.8374 18.8572C65.1682 18.5748 65.5173 18.1062 65.8241 17.6005C66.0561 17.218 66.264 16.8143 66.4211 16.4541C66.5073 16.2568 66.5782 16.0725 66.6296 15.912C66.6748 15.7707 66.7049 15.6477 66.717 15.5504C66.7209 15.5189 66.7229 15.4901 66.7229 15.4642C66.7229 15.371 66.6918 15.3088 66.6296 15.3088C66.5795 15.3088 66.5148 15.3315 66.4373 15.3748C66.3949 15.3986 66.3486 15.4285 66.2988 15.4642C66.1382 15.5796 65.9412 15.7556 65.7183 15.9805C65.4644 16.2368 65.1769 16.5565 64.8718 16.922C64.603 17.2441 64.3204 17.6017 64.0349 17.9829C63.6978 18.433 63.3565 18.9159 63.0289 19.4119C62.9589 19.5179 62.8895 19.6245 62.8209 19.7315C61.7348 21.4258 60.848 23.2219 60.848 24.3542C60.848 25.0381 61.1899 25.4733 62.0292 25.4733C64.13 25.4733 67.1582 23.374 69.3147 21.621C69.354 21.5891 69.3929 21.5573 69.4316 21.5256C69.8512 21.182 70.2355 20.8536 70.5707 20.5593C70.5811 20.5501 70.5915 20.541 70.6018 20.532C71.1594 20.0414 71.5772 19.6487 71.7895 19.443C71.8517 19.3808 71.945 19.3497 72.0071 19.3497C72.1606 19.3497 72.3141 19.4558 72.4301 19.6082C72.6796 19.3634 72.9562 19.0901 73.2615 18.7855C73.3844 18.6628 73.512 18.5351 73.6444 18.4021C73.9422 18.1029 74.2642 17.7771 74.6116 17.4225C74.1489 17.3373 73.7005 17.2282 73.3262 17.0672C72.745 16.8173 72.3425 16.4423 72.3425 15.8373C72.3425 14.5006 75.109 12.0139 77.2848 12.0139C78.5133 12.0139 79.0135 12.4387 79.0253 13.0784C79.0255 13.0862 79.0255 13.094 79.0255 13.1019C79.0255 13.2094 79.0127 13.3237 78.9882 13.4438C78.8634 14.055 78.4354 14.8186 77.8513 15.634C77.8026 15.702 77.7528 15.7703 77.702 15.839C77.5132 16.0943 77.3105 16.3537 77.0983 16.6143L77.1438 16.6291C77.5106 16.7482 77.8969 16.8737 78.2588 17.03C79.1146 17.3994 79.8337 17.9409 79.8337 18.9767C79.8337 19.3259 79.3979 20.3016 78.9342 21.3396C78.6447 21.9877 78.3443 22.6602 78.1324 23.2196C78.112 23.2735 78.0924 23.3264 78.0737 23.3781C78.0471 23.4516 78.0224 23.5227 77.9998 23.5911C77.9028 23.8839 77.8443 24.1269 77.8443 24.2921C77.8443 24.4475 77.8754 24.5408 77.9998 24.5408C78.1273 24.5408 78.339 24.4499 78.6103 24.2921C78.7198 24.2284 78.839 24.1538 78.9662 24.0698C79.0094 24.0413 79.0536 24.0117 79.0986 23.9811C80.2383 23.2061 81.9354 21.779 83.1636 20.693C83.8053 20.1256 84.319 19.6514 84.5585 19.4119C84.6206 19.3497 84.6828 19.3187 84.7761 19.3187C84.912 19.3187 85.0627 19.4288 85.1816 19.5848C85.3981 19.255 85.6251 18.9265 85.8596 18.6035C87.6328 16.1612 89.8353 14.0344 91.1713 14.0344C91.4549 14.0344 91.7226 14.0762 91.971 14.1498C92.0159 14.1631 92.0602 14.1774 92.1038 14.1928C92.5806 14.3603 92.9796 14.6449 93.2748 14.9699C93.6384 15.3701 93.8445 15.8314 93.8445 16.2103C93.8445 18.324 90.3942 23.4528 86.3222 24.0434C86.3222 24.09 86.3145 24.1367 86.3067 24.1833C86.2989 24.2299 86.2912 24.2765 86.2912 24.3232C86.2912 24.5993 86.3468 24.8338 86.4635 25.0175C86.5015 25.0773 86.546 25.1317 86.5971 25.1805C86.7954 25.3697 87.0939 25.4733 87.5034 25.4733C89.9391 25.4733 93.6212 22.6516 95.7463 20.8192C96.4688 20.1961 97.0114 19.6875 97.2638 19.443C97.3259 19.3808 97.4192 19.3497 97.4814 19.3497C97.5859 19.3497 97.6904 19.3989 97.7831 19.4784C97.9676 19.1428 98.1584 18.8003 98.3544 18.4525C99.0962 17.1359 99.9118 15.7444 100.739 14.3705C101.008 13.924 101.278 13.4793 101.547 13.0397C100.997 13.1297 100.473 13.2293 100.002 13.3355C99.5863 13.4294 99.2124 13.5283 98.8996 13.6302C98.8523 13.6456 98.8064 13.6611 98.7619 13.6767C98.3992 13.8036 98.1342 13.9345 98.0032 14.0655C97.9411 14.1276 97.8789 14.1587 97.8167 14.1587C97.6971 14.1587 97.6062 13.9284 97.5995 13.6618C97.5993 13.6513 97.5991 13.6408 97.5991 13.6303C97.5991 13.4276 97.6732 13.2358 97.8167 13.0535C97.8324 13.0336 97.8489 13.0138 97.8662 12.9942C97.9948 12.848 98.1688 12.708 98.3857 12.5734C99.2258 12.0519 100.71 11.6109 102.697 11.2057C105.836 6.10798 107.142 4.24295 107.857 4.24295C108.696 4.24295 109.629 5.20655 109.629 5.64173C109.629 5.7029 109.296 6.14457 108.806 6.79609C108.27 7.50808 107.546 8.4707 106.861 9.46126C106.58 9.86702 106.306 10.2775 106.054 10.6773L106.147 10.6711C106.578 10.6422 106.982 10.6152 107.359 10.6152C107.402 10.6152 107.443 10.6154 107.485 10.6159C108.388 10.6264 109.084 10.7544 109.411 11.0814C109.784 11.4855 109.939 11.9518 109.939 12.418C109.939 12.6072 109.916 12.7936 109.876 12.9701C109.852 13.0791 109.821 13.1843 109.785 13.2841C109.74 13.4092 109.687 13.5257 109.63 13.6303C109.456 13.9506 109.239 14.1587 109.069 14.1587C108.945 14.1587 108.852 14.0033 108.852 13.6303C108.852 13.4445 108.741 13.2931 108.544 13.1712C108.544 13.1712 108.544 13.1712 108.544 13.1712C108.013 12.8444 106.853 12.7289 105.494 12.7289H104.748C102.175 16.9047 99.4498 21.7443 98.3798 24.1224C98.3266 24.2407 98.2774 24.353 98.2326 24.4587C98.1348 24.6895 98.0576 24.8894 98.0032 25.0544C97.9422 25.24 97.91 25.3814 97.91 25.4733C97.91 25.5665 97.9411 25.5976 98.0032 25.5976C98.0994 25.5976 98.2327 25.5537 98.3963 25.4733C98.5673 25.3892 98.7715 25.2652 99.0009 25.1097C99.1016 25.0414 99.2072 24.9671 99.3169 24.8874C100.745 23.8509 102.886 21.9065 104.292 20.6118C104.335 20.5723 104.377 20.5334 104.418 20.4951C104.509 20.4116 104.596 20.3311 104.679 20.2542C104.734 20.2036 104.787 20.1546 104.838 20.1073C104.914 20.0375 104.985 19.9713 105.053 19.9092C105.209 19.7648 105.342 19.6422 105.447 19.5468C105.493 19.3026 105.584 19.0525 105.712 18.8014C105.814 18.6006 105.94 18.3992 106.085 18.1997C107.263 16.5816 109.728 15.0912 111.38 15.0912C113.618 15.0912 115.047 17.2049 115.047 18.7902C115.047 19.0395 114.967 19.3865 114.822 19.8074C114.695 20.1739 114.518 20.5964 114.301 21.0594C114.77 21.0008 115.232 20.9266 115.675 20.8366C117.113 20.5444 118.354 20.0845 118.995 19.443C119.057 19.3808 119.119 19.3497 119.182 19.3497C119.492 19.3497 119.834 19.7849 119.834 20.1579C119.834 21.1215 116.26 22.3338 113.338 22.7379C111.877 25.1003 109.577 27.5559 107.245 27.5559C104.852 27.5559 103.888 26.2193 103.888 24.7583C103.888 24.6538 103.904 24.5284 103.934 24.3871C104.082 23.6815 104.567 22.5793 105.062 21.6928C104.468 22.2808 103.708 23.0154 102.89 23.7638C100.864 25.6178 98.4814 27.5559 97.3816 27.5559C96.2004 27.5559 95.1435 26.7788 95.1435 25.4422C95.1435 25.2115 95.2249 24.8723 95.3743 24.4445C95.6015 23.7939 95.986 22.9382 96.481 21.9472C95.8972 22.4851 95.1878 23.1074 94.3922 23.7375C92.0253 25.612 88.8958 27.5559 86.0425 27.5559C84.3329 27.5559 83.0584 26.1571 83.0584 24.5718C83.0584 24.4161 83.0737 24.2479 83.1029 24.069C83.2092 23.4191 83.5003 22.6277 83.9171 21.7774C83.3803 22.2753 82.7318 22.8583 82.0426 23.4414C80.2364 24.9697 78.151 26.499 77.0672 26.499C75.8861 26.499 74.8292 25.38 74.8292 24.0745C74.8292 23.1559 75.7328 21.7453 76.5129 20.5275C77.1054 19.6025 77.6268 18.7887 77.6268 18.3861C77.6268 17.982 76.974 17.8266 76.1658 17.7023C75.2076 18.7422 74.4269 19.5407 73.7944 20.1538C73.793 20.1552 73.7916 20.1565 73.7902 20.1579C73.4741 20.4643 73.195 20.7242 72.9494 20.9448C72.6896 21.1781 72.4673 21.3674 72.2779 21.521C71.9874 21.7566 71.7747 21.908 71.6242 22.0052C71.5759 22.0363 71.5341 22.0619 71.4981 22.0829C71.402 22.139 71.3478 22.1625 71.3257 22.172C71.3217 22.1738 71.3187 22.1751 71.3167 22.176C71.3127 22.1779 71.3129 22.1784 71.3167 22.1784C71.1691 22.1784 71.0173 22.1327 70.8842 22.0597C70.7928 22.1431 70.6987 22.2284 70.6018 22.3153C70.5915 22.3246 70.5811 22.3338 70.5707 22.3431C70.4633 22.4392 70.3527 22.5371 70.239 22.6365C70.1567 22.7085 70.0728 22.7812 69.9874 22.8546C67.5557 24.9429 63.8763 27.5559 60.5682 27.5559C58.8586 27.5559 57.5842 26.1571 57.5842 24.5718C57.5842 24.4221 57.5983 24.261 57.6253 24.0898C57.726 23.4534 58.0061 22.6792 58.4095 21.8459C57.8915 22.3267 57.2669 22.8817 56.5656 23.4528C54.1628 25.4096 50.8596 27.5559 47.8615 27.5559C46.1519 27.5559 44.8774 26.1571 44.8774 24.5718C44.8774 23.9209 45.1436 23.0526 45.586 22.0928C45.7797 21.6726 46.0071 21.2349 46.2607 20.7901C45.8271 20.8434 45.3276 20.9462 44.7764 21.0893C43.7664 21.3516 42.5826 21.7493 41.3115 22.226C40.9548 22.3597 40.5912 22.4997 40.2226 22.6446C40.2463 22.6979 40.2677 22.7523 40.2869 22.8081C40.3684 23.0451 40.4091 23.3063 40.4091 23.6082C40.4091 27.7113 32.4827 32.0941 29.1256 32.0941C27.3539 32.0941 25.6442 30.7575 25.6442 29.1412C25.6442 27.505 29.8566 25.1977 34.4667 23.2377C35.1992 22.9262 35.9417 22.6236 36.679 22.3338C36.0325 22.1938 35.1931 22.1225 34.2733 22.0538ZM32.0337 23.0396C31.4276 22.9772 30.8113 22.8967 30.2167 22.7833C29.0665 22.5639 27.862 22.1987 26.926 21.4953C25.9266 20.7442 25.2868 19.6434 25.2868 18.1685C25.2868 16.5256 26.0793 14.7705 27.1744 13.1501C28.2897 11.4996 29.8151 9.84736 31.4946 8.38103C33.1755 6.91348 35.0432 5.60395 36.8634 4.65518C38.659 3.71928 40.5168 3.0773 42.1498 3.0773C43.364 3.0773 44.6605 3.49984 45.6726 4.23723C46.6893 4.97796 47.5429 6.13939 47.5429 7.6311C47.5429 8.5815 47.2612 9.74105 46.8457 10.8882C46.4224 12.057 45.8268 13.3037 45.1263 14.4513C44.4295 15.593 43.6026 16.6795 42.7008 17.4956C41.824 18.2892 40.7267 18.9612 39.5077 18.9612C38.5069 18.9612 37.6289 18.612 36.9923 18.1574C36.6739 17.9299 36.3905 17.6581 36.1762 17.3574C35.9778 17.0791 35.7621 16.6672 35.7621 16.1792C35.7621 15.7322 35.9628 15.2998 36.3417 15.0111C36.6905 14.7454 37.0933 14.6716 37.425 14.6716C37.4246 14.6716 37.425 14.6716 37.425 14.6716C37.425 14.6716 37.4529 14.6705 37.5152 14.6515C37.5824 14.631 37.674 14.5942 37.7905 14.5327C38.0266 14.4081 38.3153 14.2085 38.6451 13.9292C39.3041 13.3712 40.0346 12.5741 40.7199 11.6707C41.4033 10.77 42.0149 9.79921 42.4499 8.91167C42.9029 7.98756 43.0979 7.2871 43.0979 6.88508C43.0979 6.87978 43.0978 6.87464 43.0977 6.86965C43.0928 6.86958 43.0876 6.86954 43.0823 6.86954C42.9031 6.86954 42.5559 6.9392 42.0196 7.16444C41.5042 7.38087 40.8962 7.70556 40.2236 8.12458C38.8796 8.96186 37.3558 10.1267 35.9189 11.4046C34.4808 12.6835 33.1624 14.0467 32.2146 15.2696C31.7401 15.8818 31.3765 16.4358 31.1364 16.9085C30.8939 17.386 30.824 17.6903 30.8199 17.8435C30.8587 17.8831 30.9668 17.968 31.2117 18.0706C31.7444 18.2937 32.5453 18.4519 33.5906 18.6182C33.7843 18.649 33.9853 18.68 34.1915 18.7117C35.0371 18.842 35.9697 18.9856 36.841 19.1875C37.7088 19.3885 38.6154 19.6672 39.4021 20.1105C40.8797 19.5831 42.2501 19.1397 43.364 18.8169C43.9876 18.6361 44.5402 18.4905 44.9914 18.3889C45.4077 18.2951 45.8362 18.2152 46.1596 18.2152C46.2787 18.2152 46.3937 18.2245 46.5043 18.2418C46.6855 17.9843 46.8714 17.7298 47.0606 17.4801C47.951 16.3051 48.9419 15.2009 49.9009 14.377C50.38 13.9655 50.8748 13.6033 51.3657 13.3387C51.8422 13.0818 52.403 12.8687 52.9903 12.8687C54.1138 12.8687 55.0566 13.3327 55.7132 13.9405C56.3337 14.5148 56.8292 15.3471 56.8292 16.2103C56.8292 17.0013 56.5242 17.9083 56.1068 18.7572C55.6746 19.6362 55.062 20.5734 54.3191 21.4511C53.9272 21.9141 53.4879 22.3731 53.0078 22.8038C53.4636 22.5156 53.9207 22.2019 54.368 21.8767C56.2112 20.5366 57.7886 19.0734 58.2678 18.6096C58.548 18.3343 58.917 18.1973 59.2512 18.185C59.4197 17.9469 59.5921 17.7114 59.7674 17.4801C60.6577 16.3051 61.6487 15.2009 62.6077 14.377C63.0868 13.9655 63.5816 13.6033 64.0725 13.3387C64.549 13.0818 65.1098 12.8687 65.6971 12.8687C66.8205 12.8687 67.7634 13.3327 68.42 13.9405C69.0404 14.5148 69.5359 15.3471 69.5359 16.2103C69.5359 17.3424 69.0578 18.677 68.4412 19.7047C68.1256 20.2308 67.7367 20.7395 67.2882 21.1314C66.8571 21.5081 66.2466 21.8831 65.5106 21.8831C64.6966 21.8831 64.0333 21.4958 63.6006 21.0811C63.5485 21.0312 63.4983 20.9796 63.45 20.9263C63.1627 21.4025 62.9008 21.8752 62.6803 22.3256C62.2341 23.2371 62.0299 23.9145 62.0146 24.3075C62.0193 24.3076 62.0242 24.3076 62.0292 24.3076C62.5781 24.3076 63.3413 24.0835 64.2743 23.6218C65.1842 23.1716 66.1504 22.5488 67.0748 21.8767C68.9179 20.5366 70.4954 19.0734 70.9746 18.6096C71.2686 18.3208 71.6603 18.1841 72.0071 18.1841C72.074 18.1841 72.1387 18.1883 72.2013 18.1962C72.2856 18.1124 72.3724 18.026 72.4617 17.9368C72.4567 17.934 72.4517 17.9311 72.4468 17.9282C71.789 17.5444 71.1768 16.8714 71.1768 15.8373C71.1768 15.1477 71.5101 14.5008 71.8523 14.0097C72.2182 13.4845 72.7108 12.9714 73.2594 12.5224C74.3189 11.6551 75.8115 10.8483 77.2848 10.8483C78.0088 10.8483 78.7182 10.969 79.2773 11.3495C79.9107 11.7805 80.1912 12.4336 80.1912 13.1019C80.1912 13.8556 79.8491 14.6222 79.4808 15.2637C79.3284 15.529 79.1554 15.7999 78.9675 16.0728C79.1784 16.1742 79.386 16.2886 79.5805 16.4188C80.3404 16.9273 80.9994 17.7428 80.9994 18.9767C80.9994 19.2643 80.9167 19.5511 80.8595 19.7315C80.7915 19.9465 80.7005 20.1852 80.6024 20.4261C80.4318 20.8451 80.2128 21.3354 79.998 21.8162C79.9913 21.8311 79.9847 21.846 79.978 21.8609C80.1579 21.7166 80.3412 21.5673 80.5258 21.4151C81.9307 20.2566 83.3209 19.001 83.7342 18.5877C83.8341 18.4878 83.9803 18.3665 84.1822 18.2768C84.3786 18.1895 84.5726 18.1564 84.748 18.1533C84.9093 17.9259 85.0742 17.7011 85.2416 17.4801C86.132 16.3051 87.1229 15.2009 88.0819 14.377C88.561 13.9655 89.0558 13.6033 89.5467 13.3387C90.0233 13.0818 90.584 12.8687 91.1713 12.8687C92.2948 12.8687 93.2376 13.3327 93.8942 13.9405C94.5147 14.5148 95.0102 15.3471 95.0102 16.2103C95.0102 17.0013 94.7052 17.9083 94.2879 18.7572C93.8556 19.6362 93.2431 20.5734 92.5001 21.4511C92.1082 21.9141 91.6689 22.3731 91.1888 22.8038C91.6446 22.5156 92.1017 22.2019 92.549 21.8767C94.3922 20.5366 95.9696 19.0734 96.4488 18.6096C96.6504 18.4116 96.8978 18.2851 97.1453 18.2251C97.7656 17.1157 98.4415 15.9491 99.1352 14.781C99.0569 14.8086 98.9884 14.8351 98.9295 14.8601C98.8473 14.895 98.804 14.9188 98.7878 14.928C98.5924 15.1104 98.2652 15.3244 97.8167 15.3244C97.3652 15.3244 97.0503 15.0926 96.8841 14.9172C96.722 14.7461 96.6307 14.5615 96.579 14.4323C96.4733 14.1679 96.4335 13.8828 96.4335 13.6303C96.4335 12.9752 96.7475 12.4544 97.1274 12.0801C97.4932 11.7198 97.9685 11.4421 98.4661 11.2165C99.3608 10.8109 100.562 10.4715 101.968 10.1678C103.399 7.85035 104.453 6.20568 105.246 5.12394C105.663 4.55443 106.042 4.09238 106.394 3.76287C106.699 3.4771 107.203 3.0773 107.857 3.0773C108.68 3.0773 109.388 3.52055 109.824 3.90128C110.06 4.10699 110.275 4.3449 110.441 4.59515C110.579 4.80348 110.794 5.18317 110.794 5.64173C110.794 5.89292 110.71 6.08474 110.695 6.11926L110.694 6.1227C110.665 6.18889 110.636 6.2431 110.617 6.27552C110.579 6.34308 110.535 6.4095 110.499 6.46337C110.423 6.57547 110.321 6.71556 110.208 6.86811C110.078 7.04406 109.915 7.26145 109.732 7.5038C109.6 7.67983 109.458 7.86902 109.311 8.06506C108.984 8.5015 108.625 8.98707 108.266 9.49007C108.471 9.51046 108.67 9.53955 108.859 9.57955C109.296 9.67186 109.83 9.85162 110.235 10.2572L110.252 10.2737L110.268 10.2908C110.851 10.9225 111.105 11.6759 111.105 12.418C111.105 12.9881 110.965 13.5289 110.763 13.9709C110.972 13.9413 111.178 13.9256 111.38 13.9256C112.893 13.9256 114.112 14.6462 114.929 15.5777C115.728 16.489 116.213 17.6798 116.213 18.7902C116.213 19.0329 116.174 19.2878 116.115 19.5399C116.325 19.4855 116.527 19.427 116.717 19.3647C117.473 19.1176 117.943 18.8463 118.171 18.6188C118.36 18.4295 118.701 18.1841 119.182 18.1841C119.85 18.1841 120.313 18.6082 120.535 18.8858C120.781 19.1942 121 19.6453 121 20.1579C121 20.6472 120.775 21.026 120.576 21.268C120.374 21.5148 120.122 21.7161 119.88 21.8787C119.392 22.2057 118.76 22.4973 118.093 22.7486C116.901 23.1974 115.425 23.5809 114.035 23.8108C113.307 24.9149 112.402 26.029 111.381 26.9136C110.237 27.9055 108.815 28.7215 107.245 28.7215C105.833 28.7215 104.675 28.3234 103.863 27.5472C103.236 26.9471 102.897 26.1974 102.775 25.4321C101.91 26.1913 101.004 26.9335 100.175 27.5107C99.7126 27.8323 99.2498 28.1198 98.8135 28.3311C98.4044 28.5292 97.8975 28.7215 97.3816 28.7215C95.723 28.7215 94.0158 27.5865 93.9785 25.5117C91.7493 27.1179 88.8603 28.7215 86.0425 28.7215C83.8332 28.7215 82.1559 27.0459 81.921 25.0523C81.1926 25.6361 80.4359 26.198 79.726 26.6442C79.2902 26.9181 78.8497 27.1627 78.428 27.342C78.0236 27.5139 77.5481 27.6647 77.0672 27.6647C75.1639 27.6647 73.6636 25.9425 73.6636 24.0745C73.6636 23.3892 73.943 22.6874 74.2192 22.1228C74.507 21.5344 74.879 20.9256 75.2259 20.3775C74.1973 21.4134 73.4619 22.0669 72.9424 22.4825C72.5497 22.7967 72.2681 22.9848 72.0657 23.1013C71.9617 23.1611 71.8811 23.2006 71.8198 23.2281C71.8057 23.2344 71.7944 23.2393 71.7889 23.2417C71.7734 23.2484 71.7948 23.2393 71.8158 23.2294L71.8166 23.229C71.8252 23.225 71.8757 23.2012 71.9349 23.164C71.9617 23.1472 72.0414 23.0963 72.1277 23.0122L72.1304 23.0096C72.1777 22.9637 72.4731 22.6776 72.4793 22.1929C72.4795 22.1823 72.4795 22.1718 72.4794 22.1614C72.1547 22.4738 71.763 22.8413 71.3167 23.2397V23.344C71.3155 23.344 71.3088 23.3441 71.2977 23.3439C71.266 23.3436 71.2345 23.3425 71.2032 23.3406C70.4747 23.9861 69.6091 24.7056 68.6576 25.4005C66.4085 27.043 63.4511 28.7215 60.5682 28.7215C58.3516 28.7215 56.6704 27.0346 56.4444 25.0322C56.2827 25.1554 56.1181 25.2783 55.9508 25.4005C53.7017 27.043 50.7443 28.7215 47.8615 28.7215C45.4767 28.7215 43.7118 26.769 43.7118 24.5718C43.7118 23.9297 43.889 23.2082 44.1625 22.4755C43.3739 22.7167 42.4986 23.0233 41.5685 23.3747C41.5727 23.4518 41.5747 23.5296 41.5747 23.6082C41.5747 25.0063 40.9066 26.3028 40.026 27.3963C39.1351 28.5026 37.9402 29.5107 36.675 30.3583C35.4052 31.209 34.0245 31.9246 32.7293 32.4309C31.4567 32.9283 30.1751 33.2598 29.1256 33.2598C27.9571 33.2598 26.8267 32.8237 25.978 32.1224C25.1303 31.4219 24.4786 30.3777 24.4786 29.1412C24.4786 28.1323 25.1846 27.3009 25.8255 26.7147C26.5308 26.0696 27.4894 25.4269 28.5637 24.8088C29.5971 24.2141 30.7818 23.6172 32.0337 23.0396ZM108.138 14.9328C108.007 14.7981 107.912 14.6482 107.853 14.5167C107.788 14.3747 107.747 14.2285 107.723 14.0873C107.69 14.0782 107.652 14.0687 107.61 14.0589C107.137 13.9496 106.404 13.8945 105.494 13.8945H105.401C103.871 16.3991 102.316 19.0879 101.119 21.2995C100.906 21.6921 100.706 22.0683 100.519 22.4246C100.836 22.1531 101.159 21.8705 101.481 21.5856C102.357 20.8093 103.203 20.0314 103.839 19.4435C103.91 19.3781 103.978 19.3147 104.044 19.2539C104.177 19.1315 104.298 19.0193 104.406 18.9202C104.557 18.4432 104.801 17.9999 105.074 17.6092C105.541 16.9435 106.165 16.3251 106.84 15.7996C107.238 15.4895 107.678 15.1938 108.138 14.9328ZM35.4968 24.6648C33.2799 25.6978 31.2156 26.755 29.768 27.5852C29.2877 27.8607 28.8753 28.1111 28.5478 28.3274C28.3272 28.4731 28.145 28.6033 28.0066 28.7151C27.8047 28.8782 27.6958 29.0024 27.6958 29.079C27.6958 29.1723 27.8201 29.2344 28.0066 29.2344C28.2078 29.2344 28.5009 29.1843 28.8613 29.0921C29.2574 28.9908 29.7349 28.8387 30.2612 28.6462C32.066 27.9864 34.4455 26.8534 36.0897 25.6746C37.1015 24.9492 37.8349 24.2065 37.9846 23.5461C37.1501 23.9073 36.3131 24.2844 35.4968 24.6648ZM54.0135 15.553C54.0152 15.5325 54.0161 15.5132 54.0161 15.4953C54.0161 15.371 53.985 15.3088 53.9228 15.3088C53.8723 15.3088 53.8073 15.3314 53.7296 15.3743C53.6747 15.4047 53.6134 15.4453 53.5466 15.4953C53.3938 15.6097 53.2115 15.7735 53.008 15.9778C52.8081 16.1785 52.5875 16.4183 52.3541 16.6887C51.5602 17.6084 50.6172 18.8819 49.8273 20.1752C49.4463 20.799 49.1009 21.4274 48.8251 22.023C49.4677 21.9119 50.1205 21.4971 50.7363 20.9242C51.7845 19.9493 52.7257 18.5167 53.3282 17.345C53.4925 17.0254 53.6317 16.7252 53.7409 16.459C53.8163 16.2751 53.8775 16.1074 53.9228 15.9608C53.9738 15.796 54.0047 15.6578 54.0135 15.553ZM77.404 14.3689C77.5161 14.2215 77.6119 14.0853 77.6889 13.9627C77.8287 13.7402 77.9065 13.5625 77.9065 13.4438C77.9065 13.3673 77.883 13.3143 77.8287 13.2849C77.7947 13.2665 77.7487 13.2573 77.6889 13.2573C77.6223 13.2573 77.4727 13.3273 77.2789 13.4438C77.1377 13.5286 76.973 13.6381 76.7998 13.7631C76.1017 14.2667 75.2644 15.0223 75.2644 15.4332C75.2644 15.5036 75.2756 15.5708 75.2968 15.6345C75.3694 15.8519 75.5594 16.0279 75.8239 16.1481C76.0347 15.9317 76.2367 15.7192 76.4262 15.5139C76.5547 15.3748 76.6774 15.2388 76.7934 15.1072C77.0279 14.8408 77.2345 14.5921 77.404 14.3689ZM71.3964 22.23C71.3967 22.2296 71.3971 22.2292 71.3975 22.2288C71.3951 22.2315 71.3946 22.232 71.3964 22.23ZM92.1945 15.553C92.1962 15.5325 92.1971 15.5132 92.1971 15.4953C92.1971 15.371 92.166 15.3088 92.1038 15.3088C92.0533 15.3088 91.9883 15.3314 91.9106 15.3743C91.8557 15.4047 91.7944 15.4453 91.7276 15.4953C91.5748 15.6097 91.3926 15.7735 91.189 15.9778C90.9891 16.1785 90.7686 16.4183 90.5351 16.6887C89.7412 17.6084 88.7982 18.8819 88.0083 20.1752C87.6273 20.799 87.2819 21.4274 87.0061 22.023C87.6487 21.9119 88.3015 21.4971 88.9173 20.9242C89.9655 19.9493 90.9067 18.5167 91.5092 17.345C91.6735 17.0254 91.8127 16.7252 91.9219 16.459C91.9973 16.2751 92.0585 16.1074 92.1038 15.9608C92.1548 15.796 92.1857 15.6578 92.1945 15.553ZM107.527 20.3043C108.095 20.8436 109.568 21.1422 111.286 21.2148C112.219 19.6295 112.903 18.1064 112.903 17.2671C112.903 16.863 112.747 16.6143 112.374 16.6143C110.257 16.6143 107.897 18.4381 107.38 19.4402C107.313 19.5711 107.276 19.6879 107.276 19.7849C107.276 19.9309 107.327 20.0656 107.422 20.189C107.453 20.2286 107.488 20.2671 107.527 20.3043ZM110.634 20.0056C110.929 19.4687 111.18 18.9607 111.37 18.5094C111.472 18.2659 111.549 18.0566 111.605 17.8807C110.937 18.0444 110.227 18.395 109.6 18.8375C109.21 19.1126 108.893 19.3946 108.675 19.6339C108.717 19.6499 108.764 19.6663 108.815 19.6831C109.263 19.8292 109.889 19.9413 110.634 20.0056ZM108.407 19.9929C108.407 19.9931 108.409 19.9896 108.412 19.9822C108.41 19.9892 108.408 19.9928 108.407 19.9929ZM107.339 22.427C106.872 23.3285 106.468 24.634 106.468 25.4111C106.468 25.8152 106.562 26.0639 106.841 26.0639C107.394 26.0639 108.32 25.2263 109.286 24.0409C109.569 23.6944 109.855 23.3181 110.136 22.9244C109.661 22.9104 109.205 22.8714 108.777 22.8044C108.251 22.7223 107.767 22.5982 107.339 22.427Z" fill="#F7F7FC"/>
<path d="M114.65 0.655869V1.50757H113.494V5.02005H112.431V1.50757H111.274V0.655869H114.65Z" fill="#284296"/>
<path d="M120.903 0.655869V5.02005H119.84V2.40279L118.864 5.02005H118.006L117.024 2.39657V5.02005H115.961V0.655869H117.216L118.441 3.67723L119.653 0.655869H120.903Z" fill="#284296"/>
</svg>
