<svg width="24" height="24" viewBox="0 0 24 24" fill="none" xmlns="http://www.w3.org/2000/svg">
<path fill-rule="evenodd" clip-rule="evenodd" d="M21.75 11.25H2.25V21.75C2.25 22.5784 2.92157 23.25 3.75 23.25H20.25C21.0784 23.25 21.75 22.5784 21.75 21.75V11.25Z" stroke="#6E7191" stroke-width="1.5" stroke-linecap="round" stroke-linejoin="round"/>
<path fill-rule="evenodd" clip-rule="evenodd" d="M21.75 6.75H2.25C1.42157 6.75 0.75 7.42157 0.75 8.25V10.5C0.75 10.9142 1.08579 11.25 1.5 11.25H22.5C22.9142 11.25 23.25 10.9142 23.25 10.5V8.25C23.25 7.42157 22.5784 6.75 21.75 6.75Z" stroke="#6E7191" stroke-width="1.5" stroke-linecap="round" stroke-linejoin="round"/>
<path d="M11.25 6.75C7.936 6.75 4.5 4.064 4.5 0.75" stroke="#6E7191" stroke-width="1.5" stroke-linecap="round" stroke-linejoin="round"/>
<path d="M4.5 0.75C7.814 0.75 11.25 3.436 11.25 6.75" stroke="#6E7191" stroke-width="1.5" stroke-linecap="round" stroke-linejoin="round"/>
<path d="M12.75 6.75C16.064 6.75 19.5 4.064 19.5 0.75" stroke="#6E7191" stroke-width="1.5" stroke-linecap="round" stroke-linejoin="round"/>
<path d="M19.5 0.75C16.186 0.75 12.75 3.436 12.75 6.75" stroke="#6E7191" stroke-width="1.5" stroke-linecap="round" stroke-linejoin="round"/>
<path fill-rule="evenodd" clip-rule="evenodd" d="M9.75 6.75H14.25V23.25H9.75V6.75Z" stroke="#6E7191" stroke-width="1.5" stroke-linecap="round" stroke-linejoin="round"/>
</svg>
