<svg width="156" height="43" viewBox="0 0 156 43" fill="none" xmlns="http://www.w3.org/2000/svg">
<path d="M18.18 14.44L16.08 0.46H11.3L9.08 8.14L6.86 0.46H2.1L0 14.44H4.48L5.1 6.7L7.26 14.44H10.9L13.08 6.7L13.68 14.44H18.18Z" fill="#FCFCFC"/>
<path d="M31.5452 3.98V0.48H20.7852V14.46H31.5452V10.96H24.9852V9.14H30.8452V5.78H24.9852V3.98H31.5452Z" fill="#FCFCFC"/>
<path d="M43.6191 0.46V8.16C43.6191 10.14 42.7391 11.16 41.1591 11.16C39.5591 11.16 38.7391 10.14 38.7391 8.16V0.46H34.5391V8.16C34.5391 12.28 36.2791 14.92 41.1591 14.92C46.0191 14.92 47.8191 12.28 47.8191 8.16V0.46H43.6191Z" fill="#FCFCFC"/>
<path d="M66.5925 14.46H70.7925L66.2925 0.48H61.3325L56.8125 14.46H61.0125L61.8325 11.38H65.7925L66.5925 14.46ZM62.7525 7.88L63.8125 3.86L64.8725 7.88H62.7525Z" fill="#FCFCFC"/>
<path d="M91.1683 14.44L89.0683 0.46H84.2883L82.0683 8.14L79.8483 0.46H75.0883L72.9883 14.44H77.4683L78.0883 6.7L80.2483 14.44H83.8883L86.0683 6.7L86.6683 14.44H91.1683Z" fill="#FCFCFC"/>
<path d="M93.7734 14.44H97.9734V0.46H93.7734V14.44Z" fill="#FCFCFC"/>
<path d="M108.634 6.06V9.56H110.754V9.72C110.134 10.58 109.174 11.16 108.034 11.16C106.054 11.16 104.594 9.42 104.594 7.46C104.594 5.48 106.054 3.74 108.034 3.74C109.174 3.74 110.134 4.32 110.754 5.18L113.774 2.68C112.394 1.04 110.334 0 108.034 0C103.914 0 100.574 3.34 100.574 7.46C100.574 11.58 103.914 14.92 108.034 14.92C109.674 14.92 111.194 14.38 112.434 13.48L112.874 14.44H114.874V6.06H108.634Z" fill="#FCFCFC"/>
<path d="M124.952 0C120.832 0 117.492 3.34 117.492 7.46C117.492 11.58 120.832 14.92 124.952 14.92C129.072 14.92 132.412 11.58 132.412 7.46C132.412 3.34 129.072 0 124.952 0ZM124.952 11.18C122.972 11.18 121.512 9.44 121.512 7.46C121.512 5.5 122.972 3.76 124.952 3.76C126.932 3.76 128.392 5.5 128.392 7.46C128.392 9.44 126.932 11.18 124.952 11.18Z" fill="#FCFCFC"/>
<path d="M59.4 24.94C58.48 24.94 54.8 25.98 50.52 27.54C46.92 24.9 38.16 26.1 38.16 22.98C38.16 18.7 51.24 7.33999 55.44 7.33999C56.52 7.33999 56.96 7.93999 56.96 8.85999C56.96 12.34 50.92 20.38 48.16 20.38C47.72 20.38 47.52 20.58 47.52 20.82C47.52 21.58 48.96 22.9 50.84 22.9C54.92 22.9 59.68 13.7 59.68 9.81999C59.68 7.21999 56.72 5.45999 54.24 5.45999C47.24 5.45999 34.04 16.7 34.04 23.38C34.04 28.98 43.32 27.9 47.2 28.74C40.28 31.46 33 35.06 33 37.5C33 39.58 35.2 41.3 37.48 41.3C41.8 41.3 52 35.66 52 30.38C52 29.9 51.92 29.5 51.76 29.14C55.32 27.74 58.52 26.7 60.32 26.7C60.6 26.7 60.76 26.5 60.76 26.22C60.76 25.7 60.24 24.94 59.4 24.94ZM35.64 37.42C35.64 36.74 42.32 33.14 48.88 30.3C48.2 33.3 38.16 37.62 36.04 37.62C35.8 37.62 35.64 37.54 35.64 37.42Z" fill="#F56584"/>
<path d="M76.03 25.02C74.75 26.26 67.67 32.78 63.47 32.78C62.39 32.78 61.91 32.22 61.91 31.3C61.91 31.18 61.95 31.06 61.95 30.94C67.19 30.18 71.63 23.58 71.63 20.86C71.63 19.74 70.23 18.06 68.19 18.06C64.95 18.06 57.75 27.78 57.75 31.62C57.75 33.66 59.39 35.46 61.59 35.46C67.99 35.46 75.47 27.86 76.95 26.38C77.07 26.26 77.11 26.1 77.11 25.94C77.11 25.46 76.71 24.9 76.31 24.9C76.23 24.9 76.11 24.94 76.03 25.02ZM69.39 19.7C69.47 19.7 69.51 19.78 69.51 19.94C69.51 21.22 66.07 27.78 62.83 28.34C64.59 24.54 68.55 19.7 69.39 19.7Z" fill="#F56584"/>
<path d="M92.3816 25.02C91.1016 26.26 84.0216 32.78 79.8216 32.78C78.7416 32.78 78.3016 32.22 78.3016 31.34C78.3016 27.9 84.6616 19.7 85.7416 19.7C85.8216 19.7 85.8616 19.78 85.8616 19.9C85.8616 20.82 83.9016 24.62 82.7016 24.62C82.4216 24.62 82.3016 24.78 82.3016 24.98C82.3016 25.58 83.1816 26.66 84.3016 26.66C86.0216 26.66 87.9816 23.06 87.9816 20.86C87.9816 19.74 86.5816 18.06 84.5416 18.06C81.3016 18.06 74.1016 27.78 74.1016 31.62C74.1016 33.66 75.7416 35.46 77.9416 35.46C84.3416 35.46 91.8216 27.86 93.3016 26.38C93.4216 26.26 93.4616 26.1 93.4616 25.94C93.4616 25.46 93.0616 24.9 92.6616 24.9C92.5816 24.9 92.4616 24.94 92.3816 25.02Z" fill="#F56584"/>
<path d="M90.8131 27.38C90.8131 27.38 90.8131 27.38 90.8531 27.38C90.8131 27.38 90.8131 27.38 90.8131 27.38ZM108.813 24.98C107.653 26.14 101.493 31.58 100.373 31.58C100.213 31.58 100.173 31.46 100.173 31.26C100.173 30.02 102.733 25.38 102.733 24.42C102.733 22.5 100.813 21.9 99.2131 21.38C100.613 19.66 101.693 17.98 101.693 16.86C101.693 16.02 101.053 15.46 99.4531 15.46C96.6531 15.46 93.0931 18.66 93.0931 20.38C93.0931 21.66 94.4931 22.14 96.0131 22.42C92.0931 26.42 90.6931 27.58 90.6931 27.7C90.6931 28.1 91.2531 28.54 91.7731 28.54C91.6931 28.54 92.8531 28.38 98.0131 22.78C99.0531 22.94 99.8931 23.14 99.8931 23.66C99.8931 24.86 96.2931 28.9 96.2931 30.98C96.2931 32.66 97.6531 34.1 99.1731 34.1C101.773 34.1 108.853 27.26 109.733 26.34C109.853 26.22 109.893 26.1 109.893 25.94C109.893 25.46 109.453 24.86 109.093 24.86C108.973 24.86 108.893 24.9 108.813 24.98ZM96.8531 19.86C96.8531 19.02 99.5731 17.06 99.9731 17.06C100.173 17.06 100.253 17.14 100.253 17.3C100.253 17.82 99.0931 19.22 97.5731 20.78C97.1331 20.58 96.8531 20.26 96.8531 19.86Z" fill="#F56584"/>
<path d="M125.163 25.02C123.883 26.26 116.803 32.78 112.603 32.78C111.523 32.78 111.043 32.22 111.043 31.3C111.043 31.18 111.083 31.06 111.083 30.94C116.323 30.18 120.763 23.58 120.763 20.86C120.763 19.74 119.363 18.06 117.323 18.06C114.083 18.06 106.883 27.78 106.883 31.62C106.883 33.66 108.523 35.46 110.723 35.46C117.123 35.46 124.603 27.86 126.083 26.38C126.203 26.26 126.243 26.1 126.243 25.94C126.243 25.46 125.843 24.9 125.443 24.9C125.363 24.9 125.243 24.94 125.163 25.02ZM118.523 19.7C118.603 19.7 118.643 19.78 118.643 19.94C118.643 21.22 115.203 27.78 111.963 28.34C113.723 24.54 117.683 19.7 118.523 19.7Z" fill="#F56584"/>
<path d="M140.794 14.26C140.354 13.82 139.394 13.66 138.154 13.66C137.634 13.66 137.074 13.7 136.474 13.74C138.314 10.82 141.074 7.45999 141.074 7.25999C141.074 6.69999 139.874 5.45999 138.794 5.45999C137.874 5.45999 136.194 7.85999 132.154 14.42C128.034 15.26 125.594 16.22 125.594 17.54C125.594 17.9 125.714 18.22 125.874 18.22C125.954 18.22 126.034 18.18 126.114 18.1C126.594 17.62 128.474 17.14 130.674 16.78C126.634 23.38 122.434 30.86 122.434 32.74C122.434 34.46 123.794 35.46 125.314 35.46C127.874 35.46 135.834 27.3 136.714 26.38C136.834 26.26 136.874 26.14 136.874 25.98C136.874 25.5 136.434 24.86 136.034 24.86C135.914 24.86 127.594 32.94 126.114 32.94C126.034 32.94 125.994 32.9 125.994 32.78C125.994 31.54 130.554 23.26 134.794 16.38C135.114 16.38 135.434 16.38 135.754 16.38C138.154 16.38 140.074 16.66 140.074 17.54C140.074 18.02 140.194 18.22 140.354 18.22C140.794 18.22 141.474 17.14 141.474 15.98C141.474 15.38 141.274 14.78 140.794 14.26Z" fill="#F56584"/>
<path d="M153.128 25.02C152.048 26.1 149.647 26.78 147.088 27.1C147.688 25.82 148.048 24.78 148.048 24.18C148.048 22.14 146.207 19.42 143.327 19.42C140.448 19.42 135.647 22.94 135.647 25.62C135.647 26.1 135.688 26.5 135.848 26.86C134.928 28.18 133.688 30.82 133.688 31.86C133.688 33.74 134.927 35.46 138.007 35.46C141.007 35.46 143.968 32.3 145.848 29.26C149.608 28.74 154.208 27.18 154.208 25.94C154.208 25.46 153.768 24.9 153.368 24.9C153.287 24.9 153.208 24.94 153.128 25.02ZM144.607 21.38C145.088 21.38 145.287 21.7 145.287 22.22C145.287 23.3 144.407 25.26 143.207 27.3C140.368 27.18 138.048 26.58 138.048 25.46C138.048 24.38 141.527 21.38 144.607 21.38ZM137.488 33.54C137.128 33.54 137.007 33.22 137.007 32.7C137.007 31.7 137.528 30.02 138.128 28.86C139.128 29.26 140.368 29.46 141.728 29.5C140.128 31.74 138.408 33.54 137.488 33.54Z" fill="#F56584"/>
<path fill-rule="evenodd" clip-rule="evenodd" d="M44.1042 28.3797C43.9663 28.3694 43.8271 28.3592 43.6866 28.3489C39.4089 28.0343 34.04 27.6395 34.04 23.38C34.04 16.7 47.24 5.45999 54.24 5.45999C56.72 5.45999 59.68 7.21999 59.68 9.81999C59.68 13.7 54.92 22.9 50.84 22.9C48.96 22.9 47.52 21.58 47.52 20.82C47.52 20.58 47.72 20.38 48.16 20.38C50.92 20.38 56.96 12.34 56.96 8.85999C56.96 7.93999 56.52 7.33999 55.44 7.33999C51.24 7.33999 38.16 18.7 38.16 22.98C38.16 24.6967 40.812 25.1055 43.7972 25.5658C46.2376 25.942 48.9008 26.3526 50.52 27.54C54.1757 26.2076 57.3936 25.2545 58.8279 25.0048C59.0729 24.9621 59.2658 24.94 59.4 24.94C59.7107 24.94 59.9776 25.044 60.1907 25.2013C60.1936 25.2035 60.1965 25.2057 60.1995 25.2079C60.2418 25.2397 60.282 25.2736 60.32 25.3093C60.3393 25.3274 60.3581 25.346 60.3763 25.365C60.6484 24.9447 60.9343 24.5254 61.2302 24.1123C63.5326 20.8977 66.4394 18.06 68.19 18.06C68.5549 18.06 68.8994 18.1138 69.219 18.2085C69.2768 18.2256 69.3338 18.2441 69.39 18.2638C70.0035 18.4793 70.517 18.8457 70.8969 19.2639C71.3647 19.7788 71.63 20.3725 71.63 20.86C71.63 23.58 67.19 30.18 61.95 30.94C61.95 31 61.94 31.06 61.93 31.12C61.92 31.18 61.91 31.24 61.91 31.3C61.91 31.6554 61.9816 31.9571 62.1318 32.1935C62.1807 32.2705 62.2379 32.3405 62.3037 32.4032C62.5589 32.6467 62.943 32.78 63.47 32.78C66.6568 32.78 71.5016 29.0264 74.2128 26.6736C75.0748 25.9256 75.7212 25.3191 76.03 25.02C76.11 24.94 76.23 24.9 76.31 24.9C76.498 24.9 76.686 25.0237 76.8324 25.2046C77.1092 24.7828 77.3994 24.3626 77.6992 23.9494C79.9822 20.8025 82.8206 18.06 84.5416 18.06C84.9066 18.06 85.2511 18.1138 85.5708 18.2085C85.6285 18.2256 85.6855 18.2441 85.7416 18.2638C86.358 18.4804 86.8734 18.8492 87.2539 19.2698C87.7183 19.7834 87.9816 20.3743 87.9816 20.86C87.9816 23.06 86.0216 26.66 84.3016 26.66C83.7748 26.66 83.3011 26.4211 82.9471 26.1056C82.9412 26.1003 82.9353 26.095 82.9295 26.0897C82.8464 26.0142 82.7701 25.9346 82.7016 25.8529C82.6276 25.7649 82.5626 25.6745 82.5076 25.5845C82.3755 25.368 82.3016 25.1538 82.3016 24.98C82.3016 24.78 82.4216 24.62 82.7016 24.62C82.9256 24.62 83.176 24.4876 83.4353 24.2662C83.8609 23.9028 84.3102 23.2997 84.705 22.649C85.0036 22.1567 85.271 21.6372 85.4733 21.1738C85.5841 20.9199 85.6754 20.6827 85.7416 20.4761C85.7998 20.2943 85.8385 20.1361 85.854 20.0109C85.859 19.9704 85.8616 19.9333 85.8616 19.9C85.8616 19.78 85.8216 19.7 85.7416 19.7C85.6771 19.7 85.5938 19.7292 85.4942 19.7849C85.4395 19.8155 85.3799 19.854 85.3159 19.9C85.1092 20.0484 84.8556 20.275 84.5689 20.5643C84.2421 20.8941 83.8722 21.3055 83.4795 21.7759C83.1336 22.1903 82.77 22.6505 82.4025 23.1411C81.9688 23.7202 81.5296 24.3417 81.1081 24.98C81.018 25.1164 80.9286 25.2536 80.8404 25.3913C79.4427 27.5716 78.3016 29.8828 78.3016 31.34C78.3016 32.22 78.7416 32.78 79.8216 32.78C82.525 32.78 86.4218 30.0786 89.1969 27.8227C89.2474 27.7817 89.2975 27.7407 89.3473 27.7C89.8873 27.2578 90.3818 26.8352 90.8131 26.4565C90.8265 26.4447 90.8399 26.433 90.8531 26.4213C91.5707 25.7901 92.1083 25.2847 92.3816 25.02C92.4616 24.94 92.5816 24.9 92.6616 24.9C92.8591 24.9 93.0566 25.0365 93.2059 25.2325C93.527 24.9176 93.8829 24.5659 94.2757 24.1739C94.4339 24.0161 94.5981 23.8517 94.7685 23.6805C95.1517 23.2955 95.566 22.8762 96.0131 22.42C95.4177 22.3103 94.8406 22.1699 94.359 21.9628C93.6111 21.6412 93.0931 21.1586 93.0931 20.38C93.0931 18.66 96.6531 15.46 99.4531 15.46C101.034 15.46 101.678 16.0066 101.693 16.8298C101.693 16.8398 101.693 16.8499 101.693 16.86C101.693 16.9984 101.677 17.1454 101.645 17.3C101.484 18.0865 100.934 19.0691 100.182 20.1184C100.119 20.2059 100.055 20.2939 99.99 20.3822C99.7469 20.7107 99.4861 21.0446 99.2131 21.38L99.2717 21.399C99.7436 21.5523 100.241 21.7138 100.706 21.9148C101.808 22.3903 102.733 23.087 102.733 24.42C102.733 24.8693 102.172 26.1248 101.576 27.4606C101.203 28.2946 100.817 29.16 100.544 29.8798C100.518 29.9492 100.492 30.0173 100.468 30.0838C100.434 30.1784 100.402 30.2699 100.373 30.3579C100.248 30.7348 100.173 31.0474 100.173 31.26C100.173 31.46 100.213 31.58 100.373 31.58C100.537 31.58 100.81 31.4631 101.159 31.26C101.3 31.178 101.453 31.082 101.617 30.9739C101.672 30.9373 101.729 30.8992 101.787 30.8598C103.254 29.8625 105.438 28.026 107.018 26.6285C107.844 25.8984 108.505 25.2882 108.813 24.98C108.893 24.9 108.973 24.86 109.093 24.86C109.268 24.86 109.462 25.0017 109.615 25.2025C109.894 24.7781 110.186 24.3554 110.487 23.9398C112.769 20.7968 115.604 18.06 117.323 18.06C117.688 18.06 118.032 18.1138 118.352 18.2085C118.41 18.2256 118.467 18.2441 118.523 18.2638C119.136 18.4793 119.65 18.8457 120.03 19.2639C120.498 19.7788 120.763 20.3725 120.763 20.86C120.763 23.58 116.323 30.18 111.083 30.94C111.083 31 111.073 31.06 111.063 31.12C111.053 31.18 111.043 31.24 111.043 31.3C111.043 31.6554 111.114 31.9571 111.265 32.1935C111.314 32.2705 111.371 32.3405 111.437 32.4032C111.692 32.6467 112.076 32.78 112.603 32.78C115.737 32.78 120.475 29.1489 123.21 26.7909C124.14 25.9892 124.838 25.3346 125.163 25.02C125.243 24.94 125.363 24.9 125.443 24.9C125.577 24.9 125.712 24.9633 125.831 25.0656C126.069 24.6337 126.314 24.1929 126.566 23.7454C127.521 22.0511 128.57 20.2605 129.635 18.4925C129.981 17.9179 130.328 17.3457 130.674 16.78C129.967 16.8958 129.292 17.024 128.687 17.1607C128.151 17.2814 127.67 17.4087 127.268 17.5399C127.207 17.5597 127.148 17.5797 127.091 17.5997C126.624 17.763 126.283 17.9315 126.114 18.1C126.034 18.18 125.954 18.22 125.874 18.22C125.72 18.22 125.603 17.9237 125.595 17.5805C125.595 17.5671 125.594 17.5536 125.594 17.54C125.594 17.2791 125.69 17.0323 125.874 16.7978C125.895 16.7722 125.916 16.7467 125.938 16.7214C126.104 16.5334 126.327 16.3532 126.606 16.18C127.688 15.5088 129.597 14.9413 132.154 14.42C136.194 7.85999 137.874 5.45999 138.794 5.45999C139.874 5.45999 141.074 6.69999 141.074 7.25999C141.074 7.33872 140.647 7.90707 140.016 8.74547C139.326 9.66169 138.394 10.9004 137.513 12.1751C137.151 12.6973 136.799 13.2255 136.474 13.74L136.594 13.732C137.149 13.6948 137.669 13.66 138.154 13.66C138.209 13.66 138.262 13.6603 138.315 13.6609C139.477 13.6745 140.374 13.8392 140.794 14.26C141.274 14.78 141.474 15.38 141.474 15.98C141.474 16.2234 141.444 16.4633 141.393 16.6904C141.361 16.8307 141.321 16.9661 141.275 17.0945C141.217 17.2555 141.15 17.4054 141.077 17.54C140.852 17.9522 140.573 18.22 140.354 18.22C140.194 18.22 140.074 18.02 140.074 17.54C140.074 17.3009 139.933 17.1061 139.678 16.9492C139.678 16.9492 139.678 16.9492 139.678 16.9492C138.996 16.5286 137.502 16.38 135.754 16.38H134.794C131.483 21.7537 127.976 27.9814 126.599 31.0417C126.53 31.1939 126.467 31.3383 126.41 31.4744C126.284 31.7714 126.184 32.0286 126.114 32.241C126.036 32.4797 125.994 32.6618 125.994 32.78C125.994 32.9 126.034 32.94 126.114 32.94C126.238 32.94 126.41 32.8835 126.62 32.78C126.84 32.6718 127.103 32.5123 127.398 32.3121C127.528 32.2243 127.664 32.1287 127.805 32.0261C129.642 30.6923 132.398 28.1901 134.207 26.5241C134.262 26.4732 134.316 26.4232 134.37 26.3739C134.486 26.2664 134.598 26.1629 134.705 26.0639C134.776 25.9988 134.844 25.9357 134.91 25.8748C135.007 25.785 135.099 25.6999 135.186 25.62C135.387 25.4341 135.558 25.2763 135.693 25.1536C135.753 24.8394 135.87 24.5175 136.034 24.1944C136.166 23.936 136.327 23.6768 136.514 23.4201C138.03 21.3378 141.202 19.42 143.327 19.42C146.208 19.42 148.048 22.14 148.048 24.18C148.048 24.5008 147.945 24.9473 147.757 25.489C147.594 25.9606 147.367 26.5043 147.088 27.1C147.691 27.0246 148.285 26.9292 148.855 26.8133C150.705 26.4373 152.302 25.8455 153.128 25.02C153.208 24.94 153.287 24.9 153.368 24.9C153.768 24.9 154.208 25.46 154.208 25.94C154.208 27.18 149.607 28.74 145.848 29.26C143.967 32.3 141.007 35.46 138.007 35.46C134.927 35.46 133.688 33.74 133.688 31.86C133.688 31.7254 133.708 31.5641 133.746 31.3823C133.937 30.4743 134.561 29.0559 135.197 27.9151C134.433 28.6718 133.455 29.6172 132.403 30.5802C129.795 32.966 126.73 35.46 125.314 35.46C123.794 35.46 122.434 34.46 122.434 32.74C122.434 32.4431 122.539 32.0067 122.731 31.4561C123.024 30.6189 123.519 29.5178 124.155 28.2425C123.404 28.9347 122.491 29.7355 121.468 30.5463C118.422 32.9585 114.395 35.46 110.723 35.46C108.523 35.46 106.883 33.66 106.883 31.62C106.883 31.4196 106.902 31.2031 106.94 30.9729C107.077 30.1366 107.451 29.1182 107.988 28.024C107.297 28.6647 106.462 29.4149 105.576 30.1653C103.251 32.132 100.568 34.1 99.1731 34.1C97.6531 34.1 96.2931 32.66 96.2931 30.98C96.2931 29.7979 97.4559 27.9827 98.4598 26.4156C99.2223 25.2252 99.8931 24.178 99.8931 23.66C99.8931 23.14 99.0531 22.94 98.0131 22.78C96.7801 24.1182 95.7754 25.1457 94.9616 25.9347C94.9597 25.9365 94.9579 25.9382 94.9561 25.94C94.5493 26.3342 94.1902 26.6687 93.8742 26.9526C93.5399 27.2529 93.2537 27.4964 93.0101 27.694C92.6361 27.9972 92.3624 28.192 92.1688 28.3171C92.1067 28.3572 92.0528 28.3902 92.0065 28.4172C91.8829 28.4894 91.8132 28.5195 91.7847 28.5318C91.7795 28.5341 91.7757 28.5357 91.7731 28.5369C91.768 28.5394 91.7682 28.54 91.7731 28.54C91.5832 28.54 91.3879 28.4813 91.2165 28.3872C91.099 28.4947 90.9778 28.6044 90.8531 28.7162C90.8398 28.7281 90.8265 28.74 90.8131 28.752C90.675 28.8756 90.5326 29.0016 90.3863 29.1295C90.2804 29.2221 90.1724 29.3157 90.0625 29.4102C86.9334 32.0975 82.1986 35.46 77.9416 35.46C75.7416 35.46 74.1016 33.66 74.1016 31.62C74.1016 31.4274 74.1197 31.22 74.1545 30.9997C74.284 30.1808 74.6445 29.1845 75.1636 28.1122C74.497 28.7309 73.6933 29.445 72.7908 30.18C69.6988 32.6981 65.4481 35.46 61.59 35.46C59.39 35.46 57.75 33.66 57.75 31.62C57.75 30.7824 58.0926 29.665 58.6619 28.4298C58.9111 27.8891 59.2037 27.3258 59.5301 26.7536C58.9721 26.8221 58.3294 26.9544 57.6201 27.1386C56.3203 27.4761 54.797 27.9879 53.1612 28.6012C52.7022 28.7733 52.2343 28.9535 51.76 29.14C51.7905 29.2086 51.8181 29.2786 51.8427 29.3504C51.9476 29.6553 52 29.9914 52 30.38C52 35.66 41.8 41.3 37.48 41.3C35.2 41.3 33 39.58 33 37.5C33 35.3945 38.4206 32.4253 44.3531 29.9031C45.2957 29.5024 46.2512 29.1129 47.2 28.74C46.3681 28.5599 45.2879 28.4681 44.1042 28.3797ZM41.2222 29.6482C40.4423 29.568 39.6491 29.4644 38.884 29.3184C37.4039 29.0361 35.8539 28.5662 34.6495 27.661C33.3634 26.6945 32.54 25.2779 32.54 23.38C32.54 21.2658 33.5599 19.0073 34.969 16.922C36.4043 14.7981 38.3672 12.672 40.5285 10.785C42.6916 8.89654 45.095 7.21138 47.4373 5.99047C49.7479 4.78611 52.1386 3.95999 54.24 3.95999C55.8025 3.95999 57.4709 4.50373 58.7733 5.45264C60.0816 6.40584 61.18 7.90041 61.18 9.81999C61.18 11.043 60.8175 12.5352 60.2828 14.0114C59.7381 15.5154 58.9718 17.1197 58.0703 18.5965C57.1735 20.0656 56.1095 21.4638 54.949 22.514C53.8207 23.5352 52.4087 24.4 50.84 24.4C49.5521 24.4 48.4223 23.9507 47.6031 23.3656C47.1934 23.0729 46.8287 22.7232 46.5529 22.3362C46.2976 21.978 46.02 21.448 46.02 20.82C46.02 20.2448 46.2784 19.6883 46.7659 19.3168C47.2147 18.9749 47.7331 18.88 48.16 18.88C48.1594 18.88 48.16 18.88 48.16 18.88C48.16 18.8799 48.1958 18.8786 48.276 18.8541C48.3625 18.8277 48.4803 18.7804 48.6302 18.7012C48.9341 18.5408 49.3056 18.284 49.7301 17.9246C50.5781 17.2066 51.5181 16.1808 52.4 15.0184C53.2794 13.8592 54.0664 12.61 54.6262 11.4679C55.2092 10.2787 55.46 9.37732 55.46 8.85999C55.46 8.85317 55.4599 8.84655 55.4599 8.84014C55.4534 8.84004 55.4468 8.83999 55.44 8.83999C55.2094 8.83999 54.7626 8.92964 54.0724 9.21948C53.4092 9.49799 52.6268 9.91581 51.7613 10.455C50.0318 11.5325 48.0709 13.0314 46.2218 14.6759C44.3712 16.3217 42.6746 18.0758 41.455 19.6495C40.8444 20.4373 40.3765 21.1503 40.0676 21.7585C39.7554 22.373 39.6655 22.7646 39.6603 22.9617C39.7102 23.0127 39.8493 23.1219 40.1644 23.2539C40.85 23.541 41.8805 23.7446 43.2257 23.9586C43.4749 23.9983 43.7336 24.0381 43.999 24.079C45.0871 24.2466 46.2872 24.4314 47.4085 24.6912C48.5251 24.9498 49.6918 25.3085 50.7041 25.879C52.6056 25.2003 54.3691 24.6297 55.8025 24.2143C56.605 23.9817 57.3161 23.7942 57.8967 23.6635C58.4324 23.5429 58.9838 23.44 59.4 23.44C59.5532 23.44 59.7012 23.452 59.8436 23.4743C60.0768 23.1429 60.316 22.8154 60.5595 22.4941C61.7052 20.982 62.9804 19.561 64.2144 18.5009C64.8309 17.9713 65.4677 17.5053 66.0994 17.1648C66.7126 16.8342 67.4342 16.56 68.19 16.56C69.6357 16.56 70.849 17.1571 71.6939 17.9392C72.4923 18.6782 73.13 19.7493 73.13 20.86C73.13 21.878 72.7376 23.045 72.2005 24.1375C71.6443 25.2687 70.856 26.4747 69.8999 27.6042C69.3956 28.1999 68.8303 28.7906 68.2125 29.3448C68.799 28.974 69.3872 28.5703 69.9629 28.1518C72.3347 26.4273 74.3646 24.5444 74.9813 23.9475C75.3419 23.5934 75.8166 23.4169 76.2468 23.4012C76.4636 23.0947 76.6855 22.7917 76.911 22.4941C78.0567 20.982 79.3319 19.561 80.566 18.5009C81.1825 17.9713 81.8193 17.5053 82.451 17.1648C83.0642 16.8342 83.7858 16.56 84.5416 16.56C85.9873 16.56 87.2005 17.1571 88.0455 17.9392C88.8439 18.6782 89.4816 19.7493 89.4816 20.86C89.4816 22.3169 88.8663 24.0343 88.0728 25.3567C87.6666 26.0337 87.1663 26.6884 86.5891 27.1927C86.0343 27.6774 85.2487 28.16 84.3016 28.16C83.254 28.16 82.4006 27.6617 81.8437 27.128C81.7767 27.0638 81.7121 26.9973 81.65 26.9288C81.2802 27.5415 80.9432 28.1499 80.6594 28.7295C80.0853 29.9024 79.8225 30.7741 79.8028 31.2799C79.8089 31.28 79.8151 31.28 79.8216 31.28C80.5279 31.28 81.51 30.9916 82.7107 30.3975C83.8815 29.8181 85.1249 29.0167 86.3145 28.1518C88.6863 26.4273 90.7162 24.5444 91.3328 23.9475C91.7112 23.5759 92.2152 23.4 92.6616 23.4C92.7476 23.4 92.8309 23.4054 92.9114 23.4155C93.02 23.3077 93.1317 23.1965 93.2466 23.0818C93.2401 23.0781 93.2337 23.0744 93.2273 23.0707C92.3808 22.5769 91.5931 21.7108 91.5931 20.38C91.5931 19.4926 92.022 18.6602 92.4623 18.0282C92.9332 17.3524 93.567 16.6922 94.273 16.1143C95.6364 14.9983 97.5572 13.96 99.4531 13.96C100.385 13.96 101.298 14.1154 102.017 14.6049C102.832 15.1596 103.193 16.0001 103.193 16.86C103.193 17.8299 102.753 18.8165 102.279 19.6419C102.083 19.9834 101.86 20.332 101.618 20.6831C101.89 20.8136 102.157 20.9608 102.407 21.1283C103.385 21.7827 104.233 22.8322 104.233 24.42C104.233 24.79 104.127 25.1591 104.053 25.3913C103.966 25.668 103.849 25.9751 103.722 26.2851C103.503 26.8243 103.221 27.4552 102.944 28.074C102.936 28.0932 102.927 28.1123 102.919 28.1315C103.15 27.9457 103.386 27.7536 103.624 27.5577C105.432 26.0669 107.221 24.4512 107.752 23.9193C107.881 23.7908 108.069 23.6347 108.329 23.5193C108.582 23.407 108.831 23.3644 109.057 23.3603C109.265 23.0678 109.477 22.7785 109.692 22.4941C110.838 20.982 112.113 19.561 113.347 18.5009C113.964 17.9713 114.601 17.5053 115.232 17.1648C115.845 16.8342 116.567 16.56 117.323 16.56C118.769 16.56 119.982 17.1571 120.827 17.9392C121.625 18.6782 122.263 19.7493 122.263 20.86C122.263 21.878 121.87 23.045 121.333 24.1375C120.777 25.2687 119.989 26.4747 119.033 27.6042C118.528 28.1999 117.963 28.7906 117.345 29.3448C117.932 28.974 118.52 28.5703 119.096 28.1518C121.468 26.4273 123.497 24.5444 124.114 23.9475C124.373 23.6928 124.692 23.53 125.01 23.4528C125.809 22.0251 126.678 20.5239 127.571 19.0208C127.47 19.0563 127.382 19.0903 127.306 19.1225C127.201 19.1675 127.145 19.1981 127.124 19.21C126.872 19.4447 126.451 19.72 125.874 19.72C125.293 19.72 124.888 19.4218 124.674 19.196C124.466 18.9758 124.348 18.7383 124.282 18.5721C124.146 18.2318 124.094 17.865 124.094 17.54C124.094 16.697 124.498 16.0267 124.987 15.5451C125.458 15.0815 126.07 14.7241 126.71 14.4338C127.861 13.9119 129.407 13.4751 131.216 13.0843C133.058 10.1021 134.415 7.98571 135.434 6.59369C135.971 5.86082 136.459 5.26623 136.912 4.84221C137.305 4.47446 137.952 3.95999 138.794 3.95999C139.854 3.95999 140.765 4.53038 141.326 5.02032C141.629 5.28503 141.906 5.59119 142.12 5.91322C142.298 6.1813 142.574 6.66991 142.574 7.25999C142.574 7.58324 142.466 7.83008 142.447 7.87451L142.445 7.87893C142.409 7.96411 142.37 8.03387 142.347 8.07559C142.297 8.16252 142.241 8.248 142.194 8.31732C142.096 8.46157 141.966 8.64184 141.82 8.83816C141.653 9.06457 141.442 9.34432 141.208 9.65619C141.037 9.8827 140.854 10.1262 140.666 10.3784C140.245 10.9401 139.783 11.5649 139.321 12.2122C139.584 12.2384 139.84 12.2759 140.084 12.3273C140.647 12.4461 141.333 12.6774 141.855 13.1993L141.876 13.2205L141.897 13.2426C142.647 14.0555 142.974 15.025 142.974 15.98C142.974 16.7136 142.794 17.4095 142.534 17.9783C142.803 17.9402 143.068 17.92 143.327 17.92C145.275 17.92 146.844 18.8473 147.895 20.046C148.924 21.2187 149.548 22.751 149.548 24.18C149.548 24.4922 149.498 24.8204 149.421 25.1447C149.692 25.0747 149.951 24.9995 150.196 24.9193C151.169 24.6012 151.774 24.2521 152.067 23.9593C152.31 23.7158 152.749 23.4 153.368 23.4C154.228 23.4 154.823 23.9457 155.109 24.303C155.426 24.6998 155.708 25.2803 155.708 25.94C155.708 26.5697 155.418 27.0571 155.162 27.3685C154.902 27.6861 154.578 27.9451 154.266 28.1544C153.639 28.5751 152.825 28.9503 151.966 29.2738C150.432 29.8513 148.534 30.3449 146.745 30.6406C145.808 32.0614 144.643 33.4951 143.33 34.6335C141.857 35.9099 140.027 36.96 138.007 36.96C136.19 36.96 134.699 36.4477 133.655 35.4488C132.848 34.6765 132.412 33.7118 132.255 32.727C131.141 33.704 129.976 34.6591 128.909 35.4018C128.314 35.8157 127.718 36.1856 127.157 36.4576C126.631 36.7125 125.978 36.96 125.314 36.96C123.18 36.96 120.983 35.4994 120.935 32.8295C118.067 34.8964 114.349 36.96 110.723 36.96C107.88 36.96 105.721 34.8037 105.419 32.2383C104.482 32.9895 103.508 33.7127 102.594 34.2869C102.034 34.6393 101.467 34.954 100.924 35.1847C100.404 35.406 99.7919 35.6 99.1731 35.6C96.7238 35.6 94.7931 33.3838 94.7931 30.98C94.7931 30.0982 95.1528 29.195 95.5082 28.4684C95.8785 27.7113 96.3571 26.9279 96.8036 26.2226C95.48 27.5555 94.5336 28.3965 93.8652 28.9313C93.3598 29.3356 92.9974 29.5777 92.7369 29.7276C92.6032 29.8046 92.4994 29.8554 92.4205 29.8908C92.4024 29.899 92.3878 29.9053 92.3808 29.9083C92.3607 29.9169 92.3884 29.9053 92.4154 29.8925L92.4164 29.892C92.4275 29.8868 92.4924 29.8563 92.5687 29.8083C92.6031 29.7867 92.7056 29.7213 92.8167 29.613L92.8202 29.6096C92.8811 29.5506 93.2612 29.1824 93.2692 28.5587C93.2694 28.545 93.2694 28.5315 93.2693 28.5181C92.8514 28.9202 92.3474 29.3931 91.7731 29.9057V30.04C91.7716 30.04 91.7629 30.0401 91.7486 30.0399C91.7078 30.0395 91.6673 30.038 91.627 30.0357C90.6896 30.8662 89.5758 31.7921 88.3512 32.6864C85.457 34.8 81.6514 36.96 77.9416 36.96C75.0891 36.96 72.9257 34.7892 72.6349 32.2124C72.4268 32.3709 72.2149 32.5291 71.9997 32.6864C69.1055 34.8 65.2998 36.96 61.59 36.96C58.5212 36.96 56.25 34.4474 56.25 31.62C56.25 30.7937 56.478 29.8652 56.83 28.9223C55.8152 29.2328 54.6888 29.6272 53.4919 30.0795C53.4974 30.1787 53.5 30.2788 53.5 30.38C53.5 32.1791 52.6402 33.8475 51.507 35.2546C50.3605 36.6782 48.823 37.9755 47.1948 39.0662C45.5607 40.1609 43.7841 41.0818 42.1173 41.7333C40.4797 42.3734 38.8306 42.8 37.48 42.8C35.9763 42.8 34.5216 42.2388 33.4295 41.3363C32.3387 40.4349 31.5 39.0913 31.5 37.5C31.5 36.2017 32.4085 35.1318 33.2333 34.3775C34.1409 33.5474 35.3745 32.7203 36.7569 31.9249C38.0867 31.1597 39.6113 30.3916 41.2222 29.6482ZM139.157 19.2161C138.987 19.0428 138.866 18.8499 138.789 18.6807C138.706 18.4979 138.654 18.3098 138.622 18.1281C138.579 18.1164 138.531 18.1041 138.477 18.0916C137.867 17.9509 136.925 17.88 135.754 17.88H135.634C133.665 21.103 131.664 24.563 130.123 27.4091C129.85 27.9142 129.592 28.3983 129.352 28.8568C129.76 28.5075 130.176 28.1438 130.59 27.7773C131.717 26.7782 132.805 25.7771 133.624 25.0207C133.715 24.9364 133.803 24.855 133.888 24.7767C134.058 24.6192 134.215 24.4748 134.353 24.3472C134.548 23.7334 134.862 23.163 135.214 22.6602C135.814 21.8036 136.618 21.0077 137.486 20.3316C137.998 19.9325 138.564 19.552 139.157 19.2161ZM45.6786 31.7396C42.8259 33.069 40.1694 34.4294 38.3066 35.4977C37.6886 35.8522 37.1579 36.1745 36.7364 36.4528C36.4525 36.6403 36.2181 36.8078 36.04 36.9517C35.7802 37.1617 35.64 37.3215 35.64 37.42C35.64 37.54 35.8 37.62 36.04 37.62C36.299 37.62 36.6761 37.5555 37.1399 37.4369C37.6496 37.3065 38.264 37.1107 38.9413 36.8631C41.2638 36.014 44.3258 34.556 46.4416 33.039C47.7436 32.1056 48.6874 31.1498 48.88 30.3C47.8062 30.7649 46.7291 31.2502 45.6786 31.7396ZM69.5067 20.0142C69.5089 19.9878 69.51 19.963 69.51 19.94C69.51 19.78 69.47 19.7 69.39 19.7C69.325 19.7 69.2413 19.729 69.1413 19.7843C69.0706 19.8234 68.9918 19.8756 68.9058 19.94C68.7092 20.0872 68.4747 20.298 68.2128 20.5609C67.9555 20.8192 67.6717 21.1277 67.3713 21.4757C66.3497 22.6591 65.1361 24.2979 64.1197 25.9622C63.6294 26.7649 63.185 27.5736 62.83 28.34C63.657 28.1971 64.497 27.6633 65.2895 26.9261C66.6383 25.6716 67.8495 23.828 68.6248 22.3203C68.8363 21.909 69.0153 21.5226 69.1559 21.1801C69.2529 20.9434 69.3317 20.7276 69.39 20.539C69.4556 20.3269 69.4954 20.1491 69.5067 20.0142ZM99.6065 18.4905C99.7507 18.3008 99.874 18.1255 99.9731 17.9678C100.153 17.6814 100.253 17.4527 100.253 17.3C100.253 17.2016 100.223 17.1334 100.153 17.0955C100.109 17.0718 100.05 17.06 99.9731 17.06C99.8874 17.06 99.6949 17.1501 99.4455 17.3C99.2638 17.4092 99.0519 17.55 98.8289 17.7109C97.9306 18.359 96.8531 19.3313 96.8531 19.86C96.8531 19.9506 96.8675 20.0372 96.8949 20.1191C96.9882 20.3989 97.2328 20.6253 97.5731 20.78C97.8445 20.5015 98.1043 20.2281 98.3482 19.9639C98.5135 19.7848 98.6715 19.6099 98.8207 19.4405C99.1225 19.0978 99.3883 18.7776 99.6065 18.4905ZM91.8756 28.6065C91.8761 28.606 91.8766 28.6054 91.8771 28.6048C91.874 28.6084 91.8733 28.6091 91.8756 28.6065ZM118.639 20.0142C118.642 19.9878 118.643 19.963 118.643 19.94C118.643 19.78 118.603 19.7 118.523 19.7C118.458 19.7 118.374 19.729 118.274 19.7843C118.203 19.8234 118.125 19.8756 118.039 19.94C117.842 20.0872 117.607 20.298 117.346 20.5609C117.088 20.8192 116.805 21.1277 116.504 21.4757C115.482 22.6591 114.269 24.2979 113.252 25.9622C112.762 26.7649 112.318 27.5736 111.963 28.34C112.79 28.1971 113.63 27.6633 114.422 26.9261C115.771 25.6716 116.982 23.828 117.758 22.3203C117.969 21.9089 118.148 21.5226 118.289 21.1801C118.386 20.9434 118.464 20.7277 118.523 20.539C118.588 20.3269 118.628 20.1491 118.639 20.0142ZM138.37 26.1284C139.101 26.8224 140.997 27.2066 143.207 27.3C144.408 25.26 145.287 23.3 145.287 22.22C145.287 21.7 145.088 21.38 144.607 21.38C141.883 21.38 138.846 23.7268 138.181 25.0164C138.094 25.1848 138.048 25.3352 138.048 25.46C138.048 25.6479 138.113 25.8212 138.235 25.98C138.274 26.031 138.319 26.0804 138.37 26.1284ZM142.368 25.744C142.748 25.0531 143.071 24.3993 143.315 23.8186C143.446 23.5053 143.545 23.2359 143.618 23.0096C142.758 23.2203 141.845 23.6714 141.037 24.2409C140.535 24.5948 140.127 24.9578 139.847 25.2657C139.902 25.2862 139.962 25.3074 140.028 25.3289C140.604 25.5169 141.409 25.6612 142.368 25.744ZM139.503 25.7277C139.503 25.7279 139.504 25.7233 139.509 25.7139C139.506 25.7228 139.503 25.7275 139.503 25.7277ZM138.128 28.86C137.527 30.02 137.007 31.7 137.007 32.7C137.007 33.22 137.128 33.54 137.488 33.54C138.199 33.54 139.39 32.4622 140.634 30.9368C140.998 30.4908 141.366 30.0067 141.728 29.5C141.116 29.482 140.53 29.4318 139.978 29.3456C139.302 29.2399 138.678 29.0803 138.128 28.86Z" fill="#284296"/>
<path d="M147.536 0.843994V1.93999H146.048V6.45999H144.68V1.93999H143.192V0.843994H147.536Z" fill="#FCFCFC"/>
<path d="M155.583 0.843994V6.45999H154.215V3.09199L152.959 6.45999H151.855L150.591 3.08399V6.45999H149.223V0.843994H150.839L152.415 4.73199L153.975 0.843994H155.583Z" fill="#FCFCFC"/>
</svg>
